<?xml version="1.0" encoding="UTF-8"?>
<svg width="46px" height="43px" viewBox="0 0 46 43" version="1.1" xmlns="http://www.w3.org/2000/svg" xmlns:xlink="http://www.w3.org/1999/xlink">
    <!-- Generator: Sketch 48.2 (47327) - http://www.bohemiancoding.com/sketch -->
    <title>air</title>
    <desc>Created with Sketch.</desc>
    <defs></defs>
    <g id="Home" stroke="none" stroke-width="1" fill="none" fill-rule="evenodd" transform="translate(-146.000000, -1802.000000)">
        <g id="air" transform="translate(146.000000, 1802.626953)" fill="#42A6DD" fill-rule="nonzero">
            <path d="M26.6591797,14 L1,14 C0.4472656,14 0,13.5522461 0,13 C0,12.4477539 0.4472656,12 1,12 L26.6591797,12 C29.4160156,12 31.6591797,9.7568359 31.6591797,7 C31.6591797,4.2431641 29.4160156,2 26.6591797,2 C24.5429688,2 22.6474609,3.3398438 21.9433594,5.3334961 C21.7587891,5.8540039 21.1894532,6.1274414 20.6669922,5.9433594 C20.1464844,5.7592774 19.8730469,5.1879883 20.0566406,4.6674805 C21.0429688,1.8754883 23.6962891,0 26.6591797,0 C30.5185547,0 33.6591797,3.1401367 33.6591797,7 C33.6591797,10.8598633 30.5185547,14 26.6591797,14 Z" id="Shape"></path>
            <path d="M14.6591797,42 C11.6962891,42 9.0429688,40.1240234 8.0566406,37.3320312 C7.8730468,36.8115234 8.1464844,36.2402343 8.6669922,36.055664 C9.1894531,35.8759765 9.7587891,36.1445312 9.9433594,36.6660156 C10.6474609,38.6601562 12.5429688,40 14.6591797,40 C17.4160156,40 19.6591797,37.7568359 19.6591797,35 C19.6591797,32.2431641 17.4160156,30 14.6591797,30 L1,30 C0.4472656,30 0,29.5527344 0,29 C0,28.4472656 0.4472656,28 1,28 L14.6591797,28 C18.5185547,28 21.6591797,31.140625 21.6591797,35 C21.6591797,38.859375 18.5185547,42 14.6591797,42 Z" id="Shape"></path>
            <path d="M39,34 C36.0380859,34 33.3847656,32.1240234 32.3984375,29.3320312 C32.2138672,28.8115234 32.4863281,28.2402343 33.0078125,28.0566406 C33.5302734,27.8720703 34.0996094,28.1455078 34.2832031,28.6660156 C34.9892578,30.6601562 36.8837891,32 39,32 C41.7568359,32 44,29.7568359 44,27 C44,24.2431641 41.7568359,22 39,22 L1,22 C0.4472656,22 0,21.5522461 0,21 C0,20.4477539 0.4472656,20 1,20 L39,20 C42.859375,20 46,23.140625 46,27 C46,30.859375 42.859375,34 39,34 Z" id="Shape"></path>
        </g>
    </g>
</svg>