<?xml version="1.0" encoding="UTF-8"?>
<svg width="176px" height="58px" viewBox="0 0 176 58" version="1.1" xmlns="http://www.w3.org/2000/svg" xmlns:xlink="http://www.w3.org/1999/xlink">
    <!-- Generator: Sketch 48.2 (47327) - http://www.bohemiancoding.com/sketch -->
    <title>clean</title>
    <desc>Created with Sketch.</desc>
    <defs></defs>
    <g id="Home" stroke="none" stroke-width="1" fill="none" fill-rule="evenodd" transform="translate(-494.000000, -2127.000000)">
        <g id="clean" transform="translate(494.000000, 2125.884766)" fill-rule="nonzero">
            <g id="spray-2" transform="translate(0.208477, 0.726562)">
                <path d="M16.7631718,26.1357057 C16.2076375,26.1357057 15.725229,25.6935154 15.6553779,25.0885801 C15.5789775,24.4340518 16.013362,23.8372764 16.6256489,23.7556053 C21.7891773,23.0672425 26.4342763,19.7695003 29.0515025,14.9334465 C29.3592833,14.3623337 30.0403372,14.1651569 30.5784031,14.4976718 C31.1121103,14.8284424 31.2954667,15.5587996 30.9855066,16.1304978 C28.0201089,21.6100048 22.7561737,25.3464249 16.9028628,26.126375 C16.8559453,26.1327906 16.8090165,26.1357057 16.7631718,26.1357057 Z" id="Shape" fill="#999999"></path>
                <path d="M39.1166231,54.9571934 L14.5290315,54.9571934 C13.9112906,54.9571934 13.4114137,54.4222568 13.4114137,53.7624718 L13.4114137,39.4246419 C13.4114137,38.9521175 13.6733609,38.5233558 14.0771786,38.3314238 C14.2277999,38.2608397 29.0580629,31.0633469 29.0580629,15.5313808 C29.0580629,14.8715958 29.5579398,14.3366592 30.1756807,14.3366592 L39.1166231,14.3366592 C39.734364,14.3366592 40.234241,14.8715958 40.234241,15.5313808 L40.234241,53.7624718 C40.234241,54.4222568 39.734364,54.9571934 39.1166231,54.9571934 Z" id="Shape" fill="#8680D8"></path>
                <path d="M5.58808902,11.947216 L1.1176178,11.947216 C0.499876915,11.947216 0,11.4122794 0,10.7524944 C0,10.0927094 0.499876915,9.55777277 1.1176178,9.55777277 L5.58808902,9.55777277 C6.20582991,9.55777277 6.70570683,10.0927094 6.70570683,10.7524944 C6.70570683,11.4122794 6.20582991,11.947216 5.58808902,11.947216 Z" id="Shape" fill="#43A6DD"></path>
                <path d="M5.0838534,20.5360217 C4.69749292,20.5360217 4.3220404,20.3219276 4.11466641,19.9386609 C3.80579038,19.3669628 3.98915793,18.6366055 4.52394923,18.3064203 L6.82576133,16.8859442 C7.35728918,16.5563444 8.04270183,16.7517769 8.35266195,17.3234631 C8.66153798,17.8951613 8.47817043,18.6255185 7.94337913,18.9557037 L5.64156703,20.3761799 C5.46584399,20.4846965 5.27375901,20.5360217 5.0838534,20.5360217 Z" id="Shape" fill="#43A6DD"></path>
                <path d="M7.38348614,4.77888639 C7.19358053,4.77888639 7.00148438,4.7275492 6.82577251,4.61904458 L4.52394923,3.19856839 C3.98914676,2.86838319 3.80579038,2.13801403 4.11466641,1.5663278 C4.42354245,0.994056157 5.10677574,0.798038185 5.64156703,1.12880881 L7.94337913,2.549285 C8.47818161,2.8794702 8.66153798,3.60982741 8.35266195,4.18152559 C8.14529914,4.56479228 7.76984662,4.77888639 7.38348614,4.77888639 Z" id="Shape" fill="#43A6DD"></path>
                <path d="M41.3518588,16.7261023 L16.7642671,16.7261023 C16.1465262,16.7261023 15.6466493,16.1911658 15.6466493,15.5313808 L15.6466493,5.97360798 C15.6466493,5.31382298 16.1465262,4.77888639 16.7642671,4.77888639 L41.3518588,4.77888639 C41.9695996,4.77888639 42.4694766,5.31382298 42.4694766,5.97360798 L42.4694766,15.5313808 C42.4694766,16.1911658 41.9695996,16.7261023 41.3518588,16.7261023 Z" id="Shape" fill="#EFD358"></path>
            </g>
            <g id="lab" transform="translate(63.446697, 3.769369)">
                <path d="M14.5290315,9.55777277 L14.5290315,27.0900733 L2.024587,45.4705902 C0.781460721,47.2965071 0.605737674,49.681279 1.56400553,51.6938711 C2.52227339,53.7064633 4.43117577,54.9571934 6.54417752,54.9571934 L33.6900634,54.9571934 C35.803054,54.9571934 37.7119564,53.7064633 38.6702242,51.6938711 C39.6284921,49.681279 39.4527802,47.2965071 38.2096428,45.4705902 L25.7052095,27.0900733 L25.7052095,9.55777277 L14.5290315,9.55777277 Z" id="Shape" fill="#E6E6E6"></path>
                <path d="M29.1977651,9.55777277 C29.815506,9.55777277 30.3153829,9.02340964 30.3153829,8.36305117 L30.3153829,1.1947216 C30.3153829,0.534363128 29.815506,0 29.1977651,0 L11.176178,0 C10.5584372,0 10.0585602,0.534363128 10.0585602,1.1947216 L10.0585602,8.36305117 C10.0585602,9.02340964 10.5584372,9.55777277 11.176178,9.55777277 L14.5290315,9.55777277 L25.7052095,9.55777277 L29.1977651,9.55777277 Z" id="Shape" fill="#E6E6E6"></path>
                <path d="M26.94391,37.0363695 L13.2901968,37.0363695 L5.63938768,48.2823914 C5.38726428,48.6522414 5.35343399,49.1177646 5.54770949,49.5261205 C5.74306908,49.9344644 6.11524699,50.178307 6.54417752,50.178307 L33.6900634,50.178307 C34.118994,50.178307 34.4911719,49.9344644 34.6865315,49.5261085 C34.880807,49.1177527 34.8469655,48.6522294 34.593758,48.2812206 L26.94391,37.0363695 Z" id="Shape" fill="#72C472"></path>
                <rect id="Rectangle-path" fill="#D1D1D1" x="14.5290315" y="9.55777277" width="11.176178" height="3.58416479"></rect>
                <ellipse id="Oval" fill="#9EDB9E" cx="15.6466493" cy="45.3994207" rx="2.23523561" ry="2.38944319"></ellipse>
                <ellipse id="Oval" fill="#9EDB9E" cx="23.4699739" cy="43.0099775" rx="2.23523561" ry="2.38944319"></ellipse>
            </g>
            <g id="book-open" transform="translate(123.798058, 3.769369)">
                <path d="M49.1751834,50.178307 L2.23523561,50.178307 C1.00026793,50.178307 0,49.1090312 0,47.7888639 L0,7.16832958 C0,5.84816221 1.00026793,4.77888639 2.23523561,4.77888639 L49.1751834,4.77888639 C50.4101511,4.77888639 51.410419,5.84816221 51.410419,7.16832958 L51.410419,47.7888639 C51.410419,49.1090312 50.4101511,50.178307 49.1751834,50.178307 Z" id="Shape" fill="#A67C52"></path>
                <path d="M25.7052095,44.2046991 C25.7052095,44.2046991 20.3182917,41.9395069 6.70570683,41.8200348 C6.09101703,41.8152559 5.58808902,41.2847995 5.58808902,40.6277026 L5.58808902,3.58416479 C20.0243582,3.58416479 25.7052095,5.97360798 25.7052095,5.97360798 L25.7052095,44.2046991 Z" id="Shape" fill="#87613E"></path>
                <path d="M25.7052095,44.2046991 C25.7052095,44.2046991 31.0921273,41.9395069 44.7047122,41.8200348 C45.319402,41.8152559 45.82233,41.2847995 45.82233,40.6265079 L45.82233,3.58416479 C31.3860608,3.58416479 25.7052095,5.97360798 25.7052095,5.97360798 L25.7052095,44.2046991 Z" id="Shape" fill="#87613E"></path>
                <path d="M25.7052095,43.0099775 C25.7052095,43.0099775 18.1948179,38.476009 4.46376551,38.2406489 C3.85242857,38.2298964 3.35285341,37.7054136 3.35285341,37.0519009 L3.35285341,1.21025298 C3.35285341,0.544793048 3.87031046,-0.0011947216 4.49282357,0.0107524944 C18.2048764,0.250891535 25.7052095,4.77888639 25.7052095,4.77888639 L25.7052095,43.0099775 Z" id="Shape" fill="#EFD358"></path>
                <path d="M25.7052095,43.0099775 C25.7052095,43.0099775 33.2156011,38.476009 46.9466535,38.2406489 C47.5579904,38.2298964 48.0575656,37.7054136 48.0575656,37.0519009 L48.0575656,1.21025298 C48.0575656,0.544793048 47.5401085,-0.0011947216 46.9175954,0.0107524944 C33.2055426,0.250891535 25.7052095,4.77888639 25.7052095,4.77888639 L25.7052095,43.0099775 Z" id="Shape" fill="#E2C447"></path>
            </g>
        </g>
    </g>
</svg>