<?xml version="1.0" encoding="UTF-8"?>
<svg width="84px" height="70px" viewBox="0 0 84 70" version="1.1" xmlns="http://www.w3.org/2000/svg" xmlns:xlink="http://www.w3.org/1999/xlink">
    <!-- Generator: Sketch 48.2 (47327) - http://www.bohemiancoding.com/sketch -->
    <title>diy</title>
    <desc>Created with Sketch.</desc>
    <defs></defs>
    <g id="Home" stroke="none" stroke-width="1" fill="none" fill-rule="evenodd" transform="translate(-841.000000, -2120.000000)">
        <g id="diy" transform="translate(841.000000, 2120.384766)">
            <g id="box-2">
                <path d="M44.5598539,0.223091413 C44.3420742,0.0783475796 44.0844568,0 43.8228555,0 L17.263026,0 C17.0014248,0 16.7438073,0.0783475796 16.5260276,0.223091413 L0,11.9513257 C0,11.9513257 0.743638044,13.2792508 1.32792508,13.2792508 L59.7566285,13.2792508 C60.3409156,13.2792508 61.0845536,11.9513257 61.0845536,11.9513257 L44.5598539,0.223091413 Z" id="Shape" fill="#A67C52" fill-rule="nonzero"></path>
                <path d="M0,11.9513257 L0,53.1170031 C0,54.5843604 1.18849295,55.7728533 2.65585016,55.7728533 L58.4287035,55.7728533 C59.8960607,55.7728533 61.0845536,54.5843604 61.0845536,53.1170031 L61.0845536,11.9513257 L0,11.9513257 Z" id="Shape" fill="#C19F85" fill-rule="nonzero"></path>
                <path d="M6.91162646,40.9066912 L6.28966988,41.5286478 L6.28966988,40.9066912 L6.91162646,40.9066912 Z M15.5176705,41.5286478 L14.8957139,40.9066912 L15.5176705,40.9066912 L15.5176705,41.5286478 Z M14.5467568,46.4660015 C14.4504762,46.6587227 14.3469413,46.8467499 14.2374855,47.0298697 L14.2374855,45.6278537 L14.7158479,46.1062162 C14.6751487,46.1979094 14.633436,46.2889626 14.5899097,46.3787355 C14.5764144,46.4071663 14.5623858,46.4352237 14.5467568,46.4660015 Z M12.9699422,48.6398091 C12.8964916,48.7113394 12.8208007,48.7812695 12.7439362,48.8499194 L12.7439362,44.1343044 L13.4907108,44.8810791 L13.4907108,48.0788213 C13.3250336,48.2755964 13.1514085,48.4639436 12.9699422,48.6398091 Z M11.250387,49.8811085 L11.250387,42.6407552 L11.9971616,43.3875298 L11.9971616,49.434804 C11.7569135,49.5986143 11.5067974,49.7479159 11.250387,49.8811085 Z M9.75683775,49.3965051 L9.75683775,43.4408709 L10.5036124,42.6940962 L10.5036124,49.8532111 C10.3834883,49.7894686 10.2649112,49.7225256 10.1486277,49.6522754 C10.0153284,49.5718905 9.88506962,49.4856913 9.75683775,49.3965051 Z M8.26328851,48.0173724 L8.26328851,44.9344201 L9.01006313,44.1876455 L9.01006313,48.8013791 C8.74394466,48.5594241 8.49452194,48.298053 8.26328851,48.0173724 Z M7.09218589,46.1055227 L7.5165139,45.6811947 L7.5165139,46.9391899 C7.44082295,46.8085577 7.36779907,46.6754184 7.29824234,46.5391854 C7.22569852,46.3978316 7.15752867,46.2526373 7.09218589,46.1055227 Z M6.37960288,43.578224 C6.36120022,43.4438046 6.34450448,43.3093318 6.33180931,43.1751258 C6.31345999,42.9758436 6.30161828,42.7765615 6.29527069,42.5791996 L7.96777913,40.9066912 L9.05113574,40.9066912 L6.37960288,43.578224 Z M15.262967,44.4696062 C15.2260017,44.6273357 15.1861026,44.7841584 15.1414028,44.9388474 C15.1016104,45.0761472 15.0585108,45.2121136 15.0126375,45.346853 L10.9036702,41.2379391 L6.79539632,45.3461596 C6.6984223,45.0617985 6.61430348,44.7681027 6.54432003,44.4696596 L10.1072884,40.9066912 L11.700052,40.9066912 L15.262967,44.4696062 Z M15.5093493,42.6643853 C15.5056688,42.768187 15.4991612,42.8820167 15.4894531,43.0115821 C15.4747843,43.2013696 15.4543014,43.3914237 15.4286977,43.5791842 L12.7562047,40.9066912 L13.8395613,40.9066912 L15.5120697,42.5791996 C15.5111629,42.6075771 15.5105762,42.6363279 15.5093493,42.6643853 Z M5.54289526,42.2722219 C5.54289526,42.5908813 5.55809746,42.9177552 5.58828849,43.2445758 C5.62914773,43.6759982 5.69758429,44.1095542 5.79189126,44.5335621 C5.88129085,44.9341 5.99464057,45.3285571 6.12852659,45.7053049 C6.27148059,46.1100567 6.44147849,46.5053138 6.63350625,46.8794479 C7.16691669,47.9243456 7.86931156,48.8201551 8.72058129,49.5415928 C9.04606834,49.8185395 9.3967857,50.0709493 9.76270526,50.2915678 C10.0819514,50.4845024 10.4163998,50.6561005 10.756769,50.8017749 L10.9035635,50.8646107 L11.0503581,50.8018816 C11.1050326,50.7784649 11.1597072,50.7545681 11.2104879,50.7309914 C11.2750839,50.7018138 11.3390931,50.6714628 11.4020889,50.640845 C11.7982528,50.4487639 12.1828418,50.2207309 12.5454542,49.9630937 C12.6594973,49.8819086 12.7740206,49.7957628 12.8858767,49.7070033 C13.0955604,49.5406326 13.2991098,49.3616201 13.4902841,49.1754598 C13.7921944,48.8827775 14.0769823,48.560651 14.3367531,48.2178814 C14.6676276,47.7808582 14.9630837,47.3037226 15.2136266,46.8019967 C15.2311224,46.7675384 15.2480849,46.7336669 15.2631271,46.7019289 C15.5020416,46.2093244 15.7024439,45.6861021 15.8587331,45.1463974 C15.9760834,44.7405787 16.0691636,44.322865 16.1354665,43.905098 C16.1792061,43.630765 16.2123309,43.349551 16.2340941,43.068177 C16.2445489,42.9279967 16.2516433,42.8045122 16.2555372,42.6938295 C16.261458,42.5579699 16.2644451,42.4161361 16.2644451,42.2722219 L16.2644451,40.1599166 L5.54289526,40.1599166 L5.54289526,42.2722219 Z" id="Fill-1" fill="#221B63"></path>
                <polygon id="Shape" fill="#D1B43D" fill-rule="nonzero" points="22.5747263 11.9513257 26.5585016 0 34.526052 0 38.5098273 11.9513257"></polygon>
                <rect id="Rectangle-path" fill="#EFD358" fill-rule="nonzero" x="22.5747263" y="11.9513257" width="15.9351009" height="17.263026"></rect>
            </g>
            <g id="security" transform="translate(40.133965, 24.769531)" fill-rule="nonzero">
                <path d="M21.6275275,3.76130914 C15.9855638,7.52261828 8.46294556,9.40327285 2.82098185,9.40327285 C2.82098185,22.5678548 8.46294556,35.7324368 21.6275275,41.3744005 C34.7921095,35.7324368 40.4340732,22.5678548 40.4340732,9.40327285 C34.7921095,9.40327285 27.2694913,7.52261828 21.6275275,3.76130914 Z" id="Shape" fill="#E6EBF0"></path>
                <path d="M4.88311959,22.5678548 C7.56305235,30.6659534 12.9530083,37.6572868 21.6275275,41.3744005 L21.6275275,22.5678548 L4.88311959,22.5678548 Z" id="Shape" fill="#72C472"></path>
                <path d="M38.3719355,22.5678548 C39.7589183,18.3758758 40.4340732,13.8933356 40.4340732,9.40327285 C34.7921095,9.40327285 27.2694913,7.52261828 21.6275275,3.76130914 L21.6275275,22.5678548 L38.3719355,22.5678548 Z" id="Shape" fill="#72C472"></path>
                <path d="M42.3147278,6.58229099 L40.4340732,6.58229099 C34.6689267,6.58229099 27.9013912,4.55400504 23.1922322,1.41425224 L22.1494092,0.718410046 C21.8334592,0.507776734 21.4225362,0.507776734 21.1065862,0.718410046 L20.0637633,1.41425224 C15.3536639,4.55400504 8.58612844,6.58229099 2.82098185,6.58229099 L0.940327285,6.58229099 C0.421266624,6.58229099 0,7.00355762 0,7.52261828 L0,9.40327285 C0,25.5402294 7.66930933,38.4612666 20.5160607,43.9668829 L21.2570386,44.2847135 C21.3745795,44.3354911 21.5015237,44.36088 21.6275275,44.36088 C21.7535314,44.36088 21.8804756,44.3354911 21.9980165,44.2847135 L22.7389944,43.9668829 C35.5857458,38.4612666 43.2550551,25.5402294 43.2550551,9.40327285 L43.2550551,7.52261828 C43.2550551,7.00355762 42.8337885,6.58229099 42.3147278,6.58229099 Z M21.6275275,40.3475631 C10.6717744,35.4691452 4.04998962,24.3206249 3.77071241,10.3285549 C9.87155584,10.1339071 16.5732684,8.09339694 21.6275275,4.88311959 C26.6817867,8.09339694 33.3834993,10.1339071 39.4843427,10.3285549 C39.2050655,24.3206249 32.5832807,35.4700855 21.6275275,40.3475631 Z" id="Shape" fill="#221B63"></path>
            </g>
        </g>
    </g>
</svg>