<?xml version="1.0" encoding="UTF-8"?>
<svg width="677px" height="531px" viewBox="0 0 677 531" version="1.1" xmlns="http://www.w3.org/2000/svg" xmlns:xlink="http://www.w3.org/1999/xlink">
    <!-- Generator: Sketch 48.2 (47327) - http://www.bohemiancoding.com/sketch -->
    <title>house</title>
    <desc>Created with Sketch.</desc>
    <defs>
        <radialGradient cx="50%" cy="100%" fx="50%" fy="100%" r="100%" gradientTransform="translate(0.500000,1.000000),scale(0.500000,1.000000),rotate(90.000000),scale(1.000000,1.010847),translate(-0.500000,-1.000000)" id="radialGradient-1">
            <stop stop-color="#1500FF" stop-opacity="0" offset="0%"></stop>
            <stop stop-color="#3800FF" stop-opacity="0.553668478" offset="100%"></stop>
        </radialGradient>
        <radialGradient cx="50%" cy="100%" fx="50%" fy="100%" r="100%" gradientTransform="translate(0.500000,1.000000),scale(0.500000,1.000000),rotate(90.000000),scale(1.000000,1.010847),translate(-0.500000,-1.000000)" id="radialGradient-2">
            <stop stop-color="#1500FF" stop-opacity="0" offset="0%"></stop>
            <stop stop-color="#3800FF" stop-opacity="0.553668478" offset="100%"></stop>
        </radialGradient>
        <radialGradient cx="50%" cy="100%" fx="50%" fy="100%" r="100%" gradientTransform="translate(0.500000,1.000000),scale(0.500000,1.000000),rotate(90.000000),scale(1.000000,1.010847),translate(-0.500000,-1.000000)" id="radialGradient-3">
            <stop stop-color="#1500FF" stop-opacity="0" offset="0%"></stop>
            <stop stop-color="#3800FF" stop-opacity="0.553668478" offset="100%"></stop>
        </radialGradient>
        <radialGradient cx="50%" cy="100%" fx="50%" fy="100%" r="100%" gradientTransform="translate(0.500000,1.000000),scale(0.500000,1.000000),rotate(90.000000),scale(1.000000,1.010847),translate(-0.500000,-1.000000)" id="radialGradient-4">
            <stop stop-color="#FFFFFF" stop-opacity="0" offset="0%"></stop>
            <stop stop-color="#FFFFFF" stop-opacity="0.553668478" offset="100%"></stop>
        </radialGradient>
        <radialGradient cx="50%" cy="100%" fx="50%" fy="100%" r="100%" gradientTransform="translate(0.500000,1.000000),scale(0.500000,1.000000),rotate(90.000000),scale(1.000000,1.010847),translate(-0.500000,-1.000000)" id="radialGradient-5">
            <stop stop-color="#FFFFFF" stop-opacity="0" offset="0%"></stop>
            <stop stop-color="#FFFFFF" stop-opacity="0.553668478" offset="100%"></stop>
        </radialGradient>
        <radialGradient cx="50%" cy="100%" fx="50%" fy="100%" r="100%" gradientTransform="translate(0.500000,1.000000),scale(0.500000,1.000000),rotate(90.000000),scale(1.000000,1.010847),translate(-0.500000,-1.000000)" id="radialGradient-6">
            <stop stop-color="#FFFFFF" stop-opacity="0" offset="0%"></stop>
            <stop stop-color="#FFFFFF" stop-opacity="0.553668478" offset="100%"></stop>
        </radialGradient>
    </defs>
    <g id="Home" stroke="none" stroke-width="1" fill="none" fill-rule="evenodd" transform="translate(-644.000000, -1203.000000)">
        <g id="house" transform="translate(645.000000, 1203.937500)">
            <g id="Group-14">
                <g id="Group-20" transform="translate(0.052734, 0.566773)" opacity="0.140172101" stroke="#221B63" stroke-linecap="round" stroke-width="2">
                    <path d="M527.531533,337.498846 C527.531533,232.518203 442.427908,147.414578 337.447266,147.414578 C232.466624,147.414578 147.362998,232.518203 147.362998,337.498846" id="Oval" fill="url(#radialGradient-1)"></path>
                    <path d="M601.280168,337.498846 C601.280168,191.787957 483.158154,73.6659433 337.447266,73.6659433 C191.736377,73.6659433 73.6143633,191.787957 73.6143633,337.498846" id="Oval" fill="url(#radialGradient-2)"></path>
                    <path d="M674.841723,337.394458 C674.841723,151.056644 523.785079,0 337.447266,0 C151.109452,0 0.0528080081,151.056644 0.0528080081,337.394458" id="Oval-Copy" fill="url(#radialGradient-3)"></path>
                </g>
                <g id="home-52" transform="translate(263.681142, 190.561523)" fill-rule="nonzero">
                    <path d="M23.2606851,53.1672802 L23.2606851,16.614775 C23.2606851,14.7795735 24.7484053,13.29182 26.5836401,13.29182 L39.8754601,13.29182 C41.7106949,13.29182 43.1984151,14.7795735 43.1984151,16.614775 L43.1984151,36.8545949 L23.2606851,53.1672802 Z" id="Shape" fill="#0C082D"></path>
                    <path d="M76.4279652,3.32295501 L19.9377301,53.536394 L19.9377301,139.562482 C19.9377301,143.232852 22.9132701,146.208392 26.5836401,146.208392 L126.27229,146.208392 C129.94286,146.208392 132.9182,143.232852 132.9182,139.562482 L132.9182,53.536394 L76.4279652,3.32295501 Z" id="Shape" fill="#E6E6E6"></path>
                    <path d="M149.531347,73.103382 C148.734669,73.103382 147.934767,72.8178072 147.297125,72.2401779 L76.4279652,7.81249983 L5.55880529,72.2402112 C4.19911856,73.4733265 2.09794765,73.3694842 0.864799041,72.0163105 C-0.369944581,70.6566237 -0.270986981,68.5570478 1.0870715,67.320676 L74.1920817,0.861575775 C75.4609188,-0.287169772 77.3949784,-0.287169772 78.6637823,0.861575775 L151.768792,67.320676 C153.126851,68.5570478 153.225842,70.6566237 151.991065,72.0163105 C151.335612,72.7366939 150.435091,73.103382 149.531347,73.103382 Z" id="Shape" fill="#221B63"></path>
                    <path d="M89.7197853,103.011605 L63.1361452,103.011605 C61.3009436,103.011605 59.8131902,104.499359 59.8131902,106.33456 L59.8131902,146.21002 L93.0427403,146.21002 L93.0427403,106.33456 C93.0427403,104.499359 91.5549868,103.011605 89.7197853,103.011605 Z" id="Shape" fill="#221B63"></path>
                    <path d="M89.7197853,83.0738752 L63.1361452,83.0738752 C61.3009436,83.0738752 59.8131902,81.5861218 59.8131902,79.7509202 L59.8131902,59.8131902 C59.8131902,57.9779886 61.3009436,56.4902352 63.1361452,56.4902352 L89.7197853,56.4902352 C91.5549868,56.4902352 93.0427403,57.9779886 93.0427403,59.8131902 L93.0427403,79.7509202 C93.0427403,81.5861218 91.5549868,83.0738752 89.7197853,83.0738752 Z" id="Shape" fill="#2DC263"></path>
                    <path d="M44.2419227,146.21002 C45.6861786,143.18643 46.5213701,139.816223 46.5213701,136.241155 C46.5213701,123.394512 36.1073288,112.98047 23.2606851,112.98047 C10.4142407,112.98047 0,123.394512 0,136.241155 C0,139.816223 0.835191512,143.18643 2.27944745,146.21002 L44.2419227,146.21002 Z" id="Shape" fill="#72C472"></path>
                    <path d="M150.576483,146.21002 C152.020739,143.18643 152.85593,139.816223 152.85593,136.241155 C152.85593,123.394512 142.441889,112.98047 129.595245,112.98047 C116.748801,112.98047 106.33456,123.394512 106.33456,136.241155 C106.33456,139.816223 107.169752,143.18643 108.614008,146.21002 L150.576483,146.21002 Z" id="Shape" fill="#72C472"></path>
                </g>
            </g>
            <g id="Group-20" transform="translate(337.160156, 433.828125) rotate(-180.000000) translate(-337.160156, -433.828125) translate(147.660156, 338.828125)" opacity="0.419723732" stroke="#FFFFFF" stroke-linecap="round" stroke-width="2">
                <path d="M295.674455,189.163644 C295.674455,130.323381 247.974997,82.6239235 189.134734,82.6239235 C130.294471,82.6239235 82.5950137,130.323381 82.5950137,189.163644" id="Oval" fill="url(#radialGradient-4)"></path>
                <path d="M337.00959,189.163644 C337.00959,107.494616 270.803762,41.288788 189.134734,41.288788 C107.465706,41.288788 41.2598781,107.494616 41.2598781,189.163644" id="Oval" fill="url(#radialGradient-5)"></path>
                <path d="M378.23987,189.105136 C378.23987,84.6652533 293.574617,0 189.134734,0 C84.6948515,0 0.0295981909,84.6652533 0.0295981909,189.105136" id="Oval-Copy" fill="url(#radialGradient-6)"></path>
            </g>
        </g>
    </g>
</svg>