<?xml version="1.0" encoding="UTF-8"?>
<svg width="97px" height="22px" viewBox="0 0 97 22" version="1.1" xmlns="http://www.w3.org/2000/svg" xmlns:xlink="http://www.w3.org/1999/xlink">
    <!-- Generator: Sketch 48.2 (47327) - http://www.bohemiancoding.com/sketch -->
    <title>hydroshield_small</title>
    <desc>Created with Sketch.</desc>
    <defs>
        <polygon id="path-1" points="0 20.802644 95.6324969 20.802644 95.6324969 0.0327046543 0 0.0327046543"></polygon>
    </defs>
    <g id="Home" stroke="none" stroke-width="1" fill="none" fill-rule="evenodd" transform="translate(-1221.000000, -4718.000000)">
        <g id="hydroshield_small" transform="translate(1221.887695, 4718.775848)">
            <polygon id="Fill-1" fill="#FFFFFF" points="24.9631728 13.8672014 24.9631728 4.62557257 27.6907818 4.62557257 27.6907818 8.14608103 30.8049372 8.14608103 30.8049372 4.62280979 33.5153709 4.62280979 33.5153709 13.8684294 30.8089168 13.8684294 30.8089168 10.2309629 27.6962276 10.2309629 27.6962276 13.8672014"></polygon>
            <g id="Group-21">
                <path d="M90.6660943,10.4481538 C90.6778623,10.6221302 90.6819914,10.7971415 90.7032563,10.9699794 C90.7427925,11.2918511 90.8442655,11.5891944 91.0491726,11.8500037 C91.5197881,12.449037 92.8718657,12.4680802 93.2270726,11.3981413 C93.4056566,10.8603774 93.3967791,10.310608 93.3012934,9.75990716 C93.2488536,9.45728561 93.1324127,9.17981353 92.9097503,8.96081654 C92.5956282,8.65146777 92.2042916,8.59454511 91.7892127,8.6433951 C91.3391395,8.69628142 91.0306949,8.94405023 90.8520075,9.35844718 C90.7018111,9.70660685 90.6729073,10.0746377 90.6660943,10.4481538 Z M95.6324866,4.03835208 L95.6324866,13.8844194 L93.2990223,13.8844194 L93.2990223,12.8312468 C93.2927254,12.8292804 93.2864286,12.8273139 93.2801317,12.825244 C93.2587635,12.8603291 93.2379115,12.8958281 93.215924,12.9304992 C92.7643024,13.6420324 92.1250127,14.0269331 91.2775125,14.0470113 C90.59528,14.0631566 89.9719906,13.8908362 89.4338642,13.4553261 C89.0703991,13.1612947 88.8158394,12.7870541 88.6293067,12.3606516 C88.3550305,11.7339849 88.2873131,11.0731646 88.2960874,10.3990969 C88.3025908,9.90283478 88.349353,9.41174748 88.5033688,8.93680553 C88.6459264,8.49736261 88.8468077,8.08782996 89.1564911,7.74111923 C89.598306,7.24651308 90.154807,6.96862701 90.8102003,6.88841781 C91.2207372,6.83811888 91.6282805,6.85250479 92.0282882,6.96728157 C92.5134588,7.10658683 92.8739303,7.41583211 93.1667875,7.81532567 C93.204156,7.86624558 93.2385309,7.91944239 93.2953061,7.96498051 L93.2953061,4.03835208 L95.6324866,4.03835208 Z" id="Fill-2" fill="#FFFFFF"></path>
                <path d="M43.0928338,10.5376984 C43.1005758,10.6360193 43.1070792,10.8217942 43.1312345,11.0051886 C43.1716998,11.3120535 43.2743082,11.5937689 43.4669313,11.8438146 C43.9323854,12.4483332 45.2936503,12.4745177 45.6514378,11.3954711 C45.828267,10.8617435 45.8208346,10.315286 45.7254521,9.76789703 C45.6720833,9.46123915 45.5562618,9.18014471 45.3306058,8.95866383 C45.0192708,8.65293741 44.6308246,8.59539377 44.2198748,8.64196686 C43.7705242,8.69299026 43.4591892,8.93661923 43.277818,9.35122317 C43.124215,9.70259122 43.0993371,10.0747619 43.0928338,10.5376984 Z M48.0505549,13.8893044 L45.7241102,13.8893044 L45.7241102,12.8277486 C45.71771,12.8262997 45.7114131,12.8248507 45.705013,12.8234018 C45.6518507,12.9072334 45.6031272,12.9943768 45.5448035,13.074379 C44.9896444,13.8355902 44.2299911,14.1227908 43.3117799,14.0350265 C42.6446187,13.9712731 42.0667495,13.7129477 41.604289,13.219894 C41.1986038,12.7873853 40.9555023,12.2659737 40.8378226,11.6911584 C40.6482964,10.765803 40.6583095,9.84127551 40.9306244,8.93071998 C41.0651302,8.48092748 41.2797408,8.06880744 41.5983018,7.7198198 C42.0397038,7.2362877 42.5919725,6.96533585 43.239314,6.88771404 C43.6499541,6.83845007 44.057291,6.85324996 44.4570922,6.96906169 C44.9380305,7.10857395 45.2954051,7.4161633 45.5873333,7.81110305 C45.6239792,7.86067751 45.6565992,7.91314985 45.6916966,7.96386276 C45.6948967,7.96862356 45.7026388,7.970176 45.7200843,7.97949062 L45.7200843,4.03744132 L48.0505549,4.03744132 L48.0505549,13.8893044 Z" id="Fill-4" fill="#FFFFFF"></path>
                <path d="M69.5151018,4.03834173 L69.5151018,8.09661675 C69.6423817,7.932576 69.7513902,7.77060516 69.8814572,7.62809153 C70.3954284,7.06476421 71.0486539,6.8460777 71.7965392,6.86149857 C72.2530125,6.87081319 72.6792401,6.972653 73.0596345,7.23418673 C73.548831,7.57054789 73.8155716,8.05004366 73.9130186,8.62382406 C73.9609163,8.90543597 73.9868265,9.19418909 73.9883749,9.47983733 C73.9957041,10.9163582 73.9917814,12.3528791 73.9917814,13.7895035 C73.9917814,13.8183788 73.9917814,13.8472541 73.9917814,13.8846161 L71.6539816,13.8846161 C71.6539816,13.8402164 71.6539816,13.7976797 71.6539816,13.7550394 C71.6539816,12.4821453 71.6576978,11.2092512 71.6502654,9.93635705 C71.6490267,9.73205645 71.6179551,9.52268457 71.565309,9.32521469 C71.4813848,9.01100162 71.2555224,8.83443789 70.9370646,8.78206904 C70.6750725,8.73901482 70.414732,8.74884691 70.167295,8.85254964 C69.7301253,9.03553011 69.5603156,9.39900716 69.5221213,9.84455633 C69.5137598,9.94215281 69.5145857,10.0407843 69.5145857,10.1388982 C69.5140695,11.3427607 69.5141727,12.5465196 69.5141727,13.7502786 C69.5141727,13.7932293 69.5141727,13.8361801 69.5141727,13.886065 L67.1783343,13.886065 L67.1783343,4.03834173 L69.5151018,4.03834173 Z" id="Fill-6" fill="#FFFFFF"></path>
                <path d="M82.6136969,9.68629064 C82.6020321,9.57741312 82.5974901,9.47992013 82.5803543,9.38470405 C82.4997334,8.93460107 82.2893552,8.57940368 81.8205978,8.46048708 C81.6314844,8.41246505 81.424616,8.40594482 81.2285864,8.42002024 C80.6212973,8.46359195 80.1638949,8.98665943 80.1249781,9.68629064 L82.6136969,9.68629064 Z M84.8873922,11.0157969 L80.0792482,11.0157969 C80.1315846,11.5521119 80.2964394,12.022707 80.8002943,12.2764786 C81.258316,12.5071706 81.7406995,12.5042727 82.2089407,12.2963497 C82.4372806,12.1949239 82.5750897,11.9948666 82.6547815,11.7578614 C82.6686141,11.7167736 82.6806917,11.6751683 82.6943178,11.6318036 L84.8808889,11.6318036 C84.8319589,12.0126679 84.7234665,12.3660024 84.5278498,12.6898406 C84.1143193,13.3743614 83.4793651,13.7341126 82.7252861,13.9128497 C82.054099,14.0720262 81.3733117,14.0929323 80.6934535,13.9987512 C79.8623666,13.8835604 79.1250104,13.5582733 78.5521994,12.9228095 C78.1444497,12.4703261 77.8881351,11.9368055 77.7863525,11.3353918 C77.6658856,10.6236516 77.6676405,9.91191135 77.9065096,9.22418215 C78.2736909,8.16738714 78.9915369,7.45171408 80.0504476,7.08119933 C80.5976581,6.88973221 81.1616948,6.83011866 81.7328541,6.87203444 C82.5007657,6.92843962 83.2124181,7.15902813 83.8056682,7.67360895 C84.2533671,8.06192498 84.5389984,8.55891153 84.7134534,9.12161787 C84.8436236,9.54191408 84.8835728,9.97545774 84.8870825,10.4133482 C84.8887342,10.6087482 84.8873922,10.8042516 84.8873922,11.0157969 Z" id="Fill-8" fill="#FFFFFF"></path>
                <path d="M33.5265079,7.04340268 L33.8339202,7.04340268 C34.5340111,7.04340268 35.2342052,7.04505862 35.9342961,7.04133277 C36.0238978,7.04081529 36.0650857,7.06637874 36.0981186,7.15279768 C36.5338431,8.29166482 36.9741096,9.42866904 37.4133439,10.5660872 C37.4263506,10.5999303 37.4401831,10.6333595 37.4614481,10.6865563 C37.4820936,10.6356364 37.4974746,10.6011723 37.5101716,10.5657767 C37.9174052,9.42856554 38.3256711,8.29176832 38.7288789,7.15321167 C38.7603633,7.06420533 38.8018609,7.04102228 38.8906368,7.04143627 C39.5544947,7.04505862 40.2184559,7.04340268 40.8823138,7.04340268 C40.9175145,7.04340268 40.9527152,7.04340268 41.0039162,7.04340268 C40.9850255,7.09328763 40.9718123,7.12961464 40.9574637,7.16542416 C39.7673505,10.1400988 38.5770308,13.1146699 37.3874337,16.0895515 C37.3652397,16.1450252 37.3497556,16.1875619 37.271096,16.1870445 C36.5710051,16.1832151 35.870811,16.1847675 35.1706169,16.1845606 C35.1562682,16.1845606 35.1419196,16.1822836 35.1166288,16.1801102 C35.1350033,16.1292938 35.1513133,16.0822033 35.1689653,16.0357337 C35.5142622,15.1299389 35.8587334,14.2238337 36.2067142,13.3191775 C36.2389213,13.2354494 36.237889,13.1666247 36.2011399,13.0841386 C35.3253554,11.1139937 34.4522547,9.1428138 33.5787411,7.1717374 C33.5627408,7.13561739 33.5489083,7.09856591 33.5265079,7.04340268" id="Fill-10" fill="#FFFFFF"></path>
                <path d="M66.5706116,9.06895924 L64.4620808,9.06895924 C64.439061,8.99827165 64.419138,8.92572113 64.3921956,8.8560685 C64.3029035,8.625273 64.1366035,8.48338033 63.8951537,8.42935556 C63.6491619,8.37429582 63.4026539,8.37201892 63.1672946,8.46402663 C63.0704669,8.50190607 62.9728134,8.57062724 62.9077799,8.65135392 C62.7130923,8.89322347 62.8101264,9.21623368 63.1225969,9.3106218 C63.4189639,9.40024911 63.7278215,9.45313543 64.0343048,9.50343436 C64.5923542,9.5949246 65.152365,9.67409884 65.6773816,9.89992655 C66.3257553,10.1788476 66.6862268,10.6719013 66.7520861,11.3754653 C66.7902804,11.78417 66.7655057,12.1883209 66.626974,12.5800523 C66.4553062,13.0655508 66.1205385,13.4005665 65.6714976,13.6329144 C65.2365989,13.8579142 64.7707319,13.9675162 64.2871097,14.0159522 C63.6621686,14.0783601 63.0406341,14.0625253 62.4280804,13.9159753 C61.9043026,13.790642 61.4271837,13.5702995 61.0612412,13.157869 C60.7025246,12.7537181 60.5615154,12.2681161 60.5438635,11.7211411 L60.6581367,11.7211411 C61.3001103,11.7211411 61.9421872,11.7229005 62.584264,11.7190712 C62.6695302,11.7185537 62.7017372,11.7439102 62.7212473,11.8269138 C62.8246815,12.2679091 63.0435245,12.4480952 63.4946299,12.4822488 C63.7136793,12.4989116 63.9305609,12.4972557 64.139081,12.4213933 C64.3294331,12.3521546 64.4597065,12.2222675 64.4880942,12.0139306 C64.5217464,11.7668862 64.4055119,11.5936344 64.1231839,11.5140461 C63.838172,11.4337334 63.5474825,11.3677032 63.2553479,11.3200951 C62.7901002,11.2443362 62.3232009,11.1785129 61.8798376,11.0105393 C61.467649,10.8544678 61.1059388,10.6269841 60.879457,10.2305954 C60.6763047,9.87508757 60.6258264,9.48439115 60.6341878,9.08334515 C60.6536979,8.14008496 61.1461977,7.52107693 61.9798653,7.15149364 C62.4674102,6.93529103 62.9884008,6.86832929 63.5184755,6.86222304 C64.0623828,6.85611679 64.5962769,6.91366042 65.1114868,7.10078072 C65.9353478,7.40009041 66.3970857,7.99539791 66.5398498,8.85234265 C66.5511016,8.92023586 66.5592566,8.98875004 66.5706116,9.06895924" id="Fill-12" fill="#FFFFFF"></path>
                <mask id="mask-2" fill="white">
                    <use xlink:href="#path-1"></use>
                </mask>
                <g id="Clip-15"></g>
                <polygon id="Fill-14" fill="#FFFFFF" mask="url(#mask-2)" points="85.4156295 13.8878866 87.7270029 13.8878866 87.7270029 4.03840383 85.4156295 4.03840383"></polygon>
                <path d="M51.2305902,13.8931338 L51.0938134,13.8931338 C50.4155036,13.8931338 49.7371938,13.8931338 49.0588839,13.8931338 C48.8915517,13.8931338 48.8914485,13.8932373 48.8914485,13.729714 C48.8914485,12.115077 48.8914485,10.5004399 48.8914485,8.88569933 C48.8914485,8.32206152 48.8913452,7.75842371 48.8915517,7.19468241 C48.8915517,7.04564854 48.8923775,7.04461358 49.0449482,7.04461358 C49.730484,7.04440659 50.4160197,7.04595903 51.1015555,7.04275066 C51.1961121,7.04233668 51.2353387,7.06148339 51.2331709,7.16798051 C51.2258417,7.52421285 51.229145,7.88075568 51.2293515,8.23709152 C51.2293515,8.27134861 51.2357516,8.3056057 51.2410162,8.35797454 C51.3443472,8.17934089 51.4288908,8.01561063 51.5295379,7.86233344 C51.8312727,7.40301934 52.2517195,7.11561166 52.7941816,7.01905014 C52.9720431,6.98738044 53.1531046,6.97340851 53.3326177,6.95032896 C53.4103483,6.94039337 53.4445167,6.96802674 53.444207,7.0514443 C53.4422457,7.71329957 53.4423489,8.37525833 53.4443102,9.0371136 C53.4445167,9.11214801 53.419742,9.13553805 53.3434567,9.13812544 C52.9630622,9.15064843 52.5856614,9.17952374 52.2160027,9.28819427 C51.5807389,9.47479709 51.2999593,9.89830166 51.2446292,10.4241635 C51.2344097,10.521553 51.2313128,10.620081 51.2312096,10.7180914 C51.2301773,11.7290378 51.2305902,12.7400877 51.2305902,13.7510341 L51.2305902,13.8931338 Z" id="Fill-16" fill="#FFFFFF" mask="url(#mask-2)"></path>
                <polygon id="Fill-17" fill="#FFFFFF" mask="url(#mask-2)" points="74.845723 13.8835397 77.1715484 13.8835397 77.1715484 7.05188934 74.845723 7.05188934"></polygon>
                <path d="M76.0365278,6.38776751 C75.4069415,6.38590459 74.8945188,6.02553242 74.7676518,5.52119767 C74.5465379,4.64251882 75.2156604,3.87892724 76.1253037,3.97290138 C76.6287457,4.02485624 77.0180177,4.25534126 77.2129117,4.73628597 C77.5085561,5.46593094 77.0273082,6.26885091 76.2488674,6.36789633 C76.1663884,6.3783494 76.0830836,6.38352419 76.0365278,6.38776751" id="Fill-18" fill="#FFFFFF" mask="url(#mask-2)"></path>
                <path d="M57.0501292,6.54885863 C56.9428755,6.44132656 56.7819434,6.44132656 56.6745865,6.54885863 C56.5404936,6.6832996 53.6437153,9.12393618 53.6437153,11.0601345 C53.6437153,13.0770595 55.2798758,14.2871317 56.8623579,14.2871317 C58.4448399,14.2871317 60.0810004,13.0770595 60.0810004,11.0601345 C60.0810004,9.12393618 57.1842221,6.6832996 57.0501292,6.54885863" id="Fill-19" fill="#FFFFFF" mask="url(#mask-2)"></path>
                <path d="M19.1582832,6.45645764 C16.4127336,6.56823304 14.0891793,8.34742833 13.170452,10.809592 C13.0059069,10.5142152 12.8280454,10.225669 12.6367643,9.94426412 C13.3787656,8.36119326 14.6365963,7.09730327 16.2196977,6.34602768 L19.1724254,6.34602768 C19.1679866,6.38297566 19.1628252,6.41961315 19.1582832,6.45645764 Z M9.81492937,7.0624252 C9.44723197,6.80120195 9.06487623,6.5618163 8.66982348,6.34602768 L10.3038162,6.34602768 C10.1319419,6.57858261 9.96863555,6.81745078 9.81492937,7.0624252 Z M11.6566164,8.69755442 C11.4305475,8.44823318 11.1942591,8.20998598 10.9484737,7.98301982 C11.3019257,7.39661295 11.7145272,6.84798203 12.1814265,6.34602768 L13.5861503,6.34602768 C12.8157613,7.01036684 12.1641874,7.80428268 11.6566164,8.69755442 Z M6.0846899,16.194165 C6.02719202,16.1350689 5.97021028,16.0753518 5.91364145,16.0151173 C5.87802786,15.9772379 5.84231105,15.9392549 5.80700714,15.9009615 C5.74909635,15.8379326 5.69190815,15.7740757 5.63502964,15.7100119 C5.60271934,15.6736849 5.57020259,15.6377719 5.5383052,15.6011344 C5.47347815,15.5267209 5.40968337,15.451169 5.34630151,15.3753067 C5.32359139,15.3480873 5.30036514,15.3214889 5.27786148,15.294166 C5.19259533,15.1906702 5.1085679,15.0859326 5.02577922,14.9798494 C5.00709499,14.9558384 4.98892689,14.9311029 4.97024266,14.9069884 C4.90665435,14.8243988 4.84337571,14.7412917 4.78133581,14.6571497 C4.75222557,14.6177178 4.7237347,14.577665 4.69503737,14.5379226 C4.64414607,14.4675455 4.59346123,14.3969614 4.5436022,14.3254459 C4.51284032,14.2814602 4.48259458,14.236957 4.45234884,14.1925573 C4.40527696,14.1235257 4.35841155,14.0541835 4.31237195,13.9843239 C4.28233266,13.9386823 4.25249983,13.8929371 4.22287346,13.8468815 C4.17693709,13.775573 4.13141363,13.7036434 4.08640632,13.6311964 C4.06978664,13.604391 4.05306374,13.5773786 4.03644406,13.5503662 C5.21809259,13.8937651 6.09294812,14.9679474 6.14002,16.2504666 C6.12154222,16.2317339 6.10306445,16.2131047 6.0846899,16.194165 Z M8.01577219,17.857859 C7.99543632,17.8432661 7.97479076,17.8290872 7.95445488,17.8143908 C7.82067167,17.7175188 7.68884978,17.6178524 7.55867953,17.5164266 C7.53091126,17.4947959 7.50345266,17.4728548 7.47589084,17.4510172 C7.46845844,17.445118 7.4612325,17.4389082 7.4538001,17.4329055 C7.54175017,17.0832969 7.58727363,16.7240632 7.58727363,16.3592407 C7.58727363,13.9481004 5.6307973,11.9865456 3.22589945,11.9865456 C3.21392502,11.9865456 3.20174414,11.9875805 3.18976972,11.987684 C3.18429865,11.976196 3.17851789,11.9650185 3.17304682,11.9535304 C3.15838847,11.9224817 3.1436269,11.8915365 3.12907178,11.8604878 C3.05877365,11.7094875 2.9902304,11.5572453 2.92395816,11.4034506 C2.91363538,11.3793361 2.90362228,11.3549111 2.8932995,11.3306931 C2.86408604,11.2620754 2.83673067,11.1924228 2.80834303,11.1231841 C2.9467715,11.1123171 3.08612902,11.1068318 3.22589945,11.1068318 C6.11452273,11.1068318 8.46470986,13.4630158 8.46470986,16.3592407 C8.46470986,16.922568 8.37861788,17.468508 8.20808557,17.990851 C8.14398111,17.9465549 8.07915406,17.9032936 8.01577219,17.857859 Z M9.94396411,19.0169078 C9.87253047,18.9814088 9.80150975,18.9448748 9.73059226,18.9080303 C9.68558494,18.8847437 9.6404744,18.8616642 9.59577677,18.8378602 C9.5516985,18.8143666 9.5082396,18.7898382 9.46447102,18.7659306 C9.75660566,18.0020286 9.90989893,17.1820318 9.90989893,16.3592407 C9.90989893,15.6568151 9.80099361,14.9796424 9.60021556,14.3429366 L9.60021556,14.3151998 L9.5907186,14.3151998 C8.72659876,11.6167553 6.20061471,9.65789141 3.22589945,9.65789141 C2.91487411,9.65789141 2.60550042,9.679936 2.30056553,9.72226576 C2.25411302,9.57478433 2.20858956,9.42678542 2.1656468,9.27723407 C2.16430484,9.27236977 2.16296288,9.26750547 2.16151769,9.26274467 C2.12900094,9.14889935 2.09906488,9.03391558 2.06871591,8.9191388 C2.45076196,8.85983574 2.83786618,8.82992547 3.22589945,8.82992547 C7.36677907,8.82992547 10.7357213,12.207509 10.7357213,16.3592407 C10.7357213,17.3268224 10.5574469,18.2610784 10.2052336,19.1427586 C10.1670394,19.1247504 10.1288451,19.1069491 10.0908573,19.0886304 C10.0418241,19.0649298 9.99279085,19.0412293 9.94396411,19.0169078 Z M13.054011,17.6216817 C12.9409766,17.7074797 12.8273228,17.7919322 12.7140819,17.8727624 C12.4663352,18.0492226 12.212498,18.2176102 11.9540157,18.3777181 C12.1045218,17.7218656 12.1809103,17.0474873 12.1809103,16.3592407 C12.1809103,11.4086254 8.16369762,7.38098509 3.22589945,7.38098509 C2.73164478,7.38098509 2.23862885,7.42259038 1.75252918,7.50342056 C1.73023198,7.38129558 1.70886383,7.25906711 1.68894086,7.13663165 C1.6820246,7.09378441 1.6745922,7.05104067 1.66798562,7.00829693 C1.64321095,6.84912048 1.62081052,6.68973704 1.60026819,6.5303536 C2.13457524,6.44227872 2.67920506,6.39777555 3.22589945,6.39777555 C6.36970183,6.39777555 9.36165614,7.91491962 11.2294598,10.4559471 C11.9368798,11.4188714 12.4597286,12.4863265 12.7835542,13.628609 C12.9331313,14.1556093 13.0391462,14.6986515 13.0987086,15.2428321 L13.1147089,15.3887611 C13.1457805,15.7120818 13.1615744,16.0378864 13.1615744,16.3592407 C13.1615744,16.7717747 13.1360771,17.1867926 13.0857019,17.5970497 C13.0750695,17.6052259 13.0646435,17.6135056 13.054011,17.6216817 Z M15.0712885,13.1508727 C15.0712885,13.8629234 15.2414079,14.552826 15.5660593,15.1745249 C15.3700297,15.4172224 15.1665678,15.6517438 14.9576347,15.8797449 C14.7936057,15.6101385 14.654145,15.3255252 14.5402847,15.0280784 L14.5395621,14.8443735 L14.5016775,14.8097024 C14.4341666,14.3078516 14.3312485,13.8090021 14.1971556,13.3215372 C14.1951942,13.2682369 14.1938523,13.2126596 14.1938523,13.1508727 C14.1938523,10.4300731 16.2680083,8.18618196 18.9141495,7.92433774 C18.8506644,8.23172009 18.7803663,8.5376535 18.7015002,8.84068903 C16.6275507,9.18864171 15.0712885,10.9870872 15.0712885,13.1508727 Z M17.1756903,12.7457903 C17.132541,12.8257926 17.0891854,12.9056913 17.0447974,12.9848655 C17.0193002,13.0304036 16.9931835,13.0754243 16.9672733,13.1206519 C16.925879,13.192892 16.884175,13.2648215 16.8417483,13.3362336 C16.8142898,13.3824961 16.7864183,13.4285518 16.7585467,13.4746074 C16.715604,13.545295 16.6721451,13.6155686 16.62817,13.6855317 C16.6121697,13.7108881 16.5960662,13.7362446 16.5799627,13.7616011 C16.537949,13.5624752 16.5164776,13.3580712 16.5164776,13.1508727 C16.5164776,11.9843722 17.1925164,10.9761167 18.1811289,10.5073845 C18.1697739,10.5381227 18.1584188,10.5687574 18.1470638,10.5994957 C18.1176439,10.6782559 18.087811,10.7569127 18.0572556,10.8351555 C18.0378488,10.8852474 18.0181323,10.9352358 17.9982093,10.9851208 C17.9666216,11.064295 17.9343113,11.1430553 17.9014849,11.2216086 C17.8818716,11.2686991 17.8624647,11.3157897 17.8424386,11.3625698 C17.8059991,11.4478503 17.7687339,11.5325098 17.7309525,11.6169623 C17.7136103,11.6559802 17.6966809,11.6952051 17.679029,11.734016 C17.6246279,11.8536571 17.5689881,11.9725737 17.5121096,12.0905588 C17.4802122,12.1484129 17.4506891,12.20813 17.4237466,12.2697099 C17.3635648,12.3904895 17.3018346,12.5101305 17.2388657,12.6291506 C17.2182201,12.668272 17.1967487,12.7068759 17.1756903,12.7457903 Z M19.2874212,4.8921195 C19.2874212,4.89367194 19.287318,4.89543137 19.287318,4.8970873 L1.46204618,4.8970873 C1.45141371,4.63990038 1.44522005,4.38385192 1.44522005,4.13111532 L1.44522005,3.86212988 L19.3036279,3.86212988 L19.3036279,4.13111532 C19.3036279,4.38954418 19.2982601,4.64362623 19.2874212,4.8921195 Z M1.44522005,2.4131895 L19.3036279,2.4131895 L19.3036279,1.48172783 L1.44522005,1.48172783 L1.44522005,2.4131895 Z M3.09683374e-05,0.0327874509 L3.09683374e-05,4.13111532 C3.09683374e-05,4.54344235 0.0142764035,4.96301409 0.0403930347,5.38455224 L0.0284186109,5.38734663 L0.0878778187,6.01784268 C0.14485956,6.62194733 0.230745082,7.22843237 0.342334324,7.82901816 L0.329121167,7.83243352 L0.481898298,8.51881728 C0.59586178,9.0310177 0.732019237,9.53721537 0.884486684,10.0330635 L0.867557327,10.0373068 L1.13336889,10.7922047 C1.29543652,11.2523468 1.47753035,11.7049337 1.67376638,12.1482059 L1.64290127,12.1521388 L2.11052316,13.0704565 C2.2109638,13.2676159 2.3153271,13.4611529 2.42185818,13.6527235 C3.13712355,14.9391756 3.98906251,16.1012258 4.96879748,17.1232462 C5.3440305,17.5147706 5.73784452,17.8858029 6.14962018,18.2356185 C6.14982664,18.2359289 6.15013632,18.2361359 6.150446,18.2363429 C6.15054923,18.2364464 6.15065246,18.2365499 6.15085891,18.2366534 L6.92475767,18.8941619 L6.93776437,18.8605257 C7.1681688,19.0323287 7.40177329,19.2000953 7.64126176,19.3585473 C7.81437477,19.473117 7.98975879,19.584168 8.16700091,19.6912861 L8.83127174,20.0928495 L8.8407687,20.0742203 C9.24965398,20.2948732 9.66700394,20.4992773 10.0901347,20.6807054 L10.3742175,20.8026233 L10.6583004,20.6809123 C10.7641089,20.6355812 10.8699174,20.5892151 10.9682935,20.5433665 C10.9701516,20.5425385 10.9720097,20.5416071 10.9738678,20.5407791 C10.9740742,20.5406756 10.9742807,20.5405721 10.9744871,20.5404686 L11.2113949,20.4304526 L11.2124272,20.4282792 C11.2545441,20.4082011 11.2973837,20.3888474 11.3389845,20.3685622 C12.1058637,19.995667 12.8501361,19.5533262 13.551569,19.0535453 C13.7725797,18.8958178 13.9941065,18.7287757 14.2103687,18.5568692 L14.4329278,18.379788 L14.4337537,18.3744062 C14.7604696,18.1040754 15.0785144,17.8196691 15.3801461,17.5252237 C15.7329786,17.1823423 16.0719787,16.8162779 16.3973527,16.43531 L16.416966,16.4634609 L17.0182679,15.6673716 C17.6586931,14.8193275 18.2303686,13.8934546 18.7148166,12.9210086 C18.7490882,12.8536329 18.7821211,12.7872921 18.8109217,12.7259192 C18.8117475,12.7242632 18.8125733,12.7225038 18.8133992,12.7208479 C18.8135024,12.7204339 18.8137088,12.7201234 18.8139153,12.7198129 L18.8139153,12.7197094 C19.0582555,12.2142362 19.2811243,11.6915827 19.482212,11.1568202 C19.6604864,10.6827062 19.8217282,10.1991741 19.9635632,9.70839733 L20.2437234,8.73884922 L20.2140971,8.74009117 C20.3260992,8.26287231 20.4228237,7.78151361 20.4993155,7.29943045 C20.5837558,6.76777283 20.6478602,6.22203978 20.6899772,5.67558227 C20.7104163,5.40349196 20.7239391,5.16400282 20.731578,4.94924915 C20.7430363,4.685749 20.748817,4.41034683 20.748817,4.13111532 L20.748817,0.0327874509 L3.09683374e-05,0.0327874509 Z" id="Fill-20" fill="#FFFFFF" mask="url(#mask-2)"></path>
            </g>
        </g>
    </g>
</svg>