<?xml version="1.0" encoding="UTF-8"?>
<svg width="175px" height="40px" viewBox="0 0 175 40" version="1.1" xmlns="http://www.w3.org/2000/svg" xmlns:xlink="http://www.w3.org/1999/xlink">
    <!-- Generator: Sketch 48.2 (47327) - http://www.bohemiancoding.com/sketch -->
    <title>Group Copy</title>
    <desc>Created with Sketch.</desc>
    <defs>
        <polygon id="path-1" points="3.90034066e-05 0.0617033892 39.1984626 0.0617033892 39.1984626 39.1984236 3.90034066e-05 39.1984236"></polygon>
    </defs>
    <g id="Home" stroke="none" stroke-width="1" fill="none" fill-rule="evenodd" transform="translate(-147.000000, -53.000000)">
        <g id="Group-Copy" transform="translate(147.000000, 52.929688)">
            <g id="Page-1">
                <g id="Group-3" transform="translate(0.000000, 0.133392)">
                    <mask id="mask-2" fill="white">
                        <use xlink:href="#path-1"></use>
                    </mask>
                    <g id="Clip-2"></g>
                    <path d="M5.00417607,2.79194185 L2.73027746,5.06584045 L2.73027746,2.79194185 L5.00417607,2.79194185 Z M36.4682241,5.06584045 L34.1943255,2.79194185 L36.4682241,2.79194185 L36.4682241,5.06584045 Z M32.9185241,23.117007 C32.5665184,23.8216036 32.1879903,24.5090386 31.7878154,25.1785321 L31.7878154,20.0527044 L33.5367281,21.8016172 C33.3879301,22.1368514 33.2354268,22.4697455 33.0762929,22.7979592 C33.0269536,22.9019033 32.9756641,23.0044822 32.9185241,23.117007 Z M27.1536256,31.0645362 C26.8850871,31.326054 26.608358,31.5817214 26.3273384,31.8327083 L26.3273384,14.5922275 L29.0575769,17.3224659 L29.0575769,29.013542 C28.451854,29.7329599 27.8170735,30.421565 27.1536256,31.0645362 Z M20.8668615,35.6027776 L20.8668615,9.13175057 L23.5971,11.861989 L23.5971,33.97107 C22.7187433,34.5699673 21.8043084,35.11582 20.8668615,35.6027776 Z M15.4063846,33.8310478 L15.4063846,12.0570061 L18.1366231,9.3267676 L18.1366231,35.5007836 C17.6974447,35.2677383 17.2639218,35.0229919 16.8387847,34.7661545 C16.3514371,34.4722638 15.8752055,34.1571163 15.4063846,33.8310478 Z M9.94590768,28.7888824 L9.94590768,17.517483 L12.6761461,14.7872445 L12.6761461,31.6552428 C11.7032062,30.7706455 10.7913065,29.8150621 9.94590768,28.7888824 Z M5.66430872,21.7990819 L7.21566922,20.2477214 L7.21566922,24.8470031 C6.93894005,24.3694064 6.67196173,23.8826439 6.41765952,23.3845704 C6.15243635,22.8677753 5.90320459,22.3369389 5.66430872,21.7990819 Z M3.05907618,12.5591749 C2.9917953,12.067732 2.93075497,11.5760941 2.88434092,11.0854312 C2.81725506,10.3568476 2.77396128,9.62826393 2.75075425,8.90670091 L8.86551332,2.79194185 L12.8263093,2.79194185 L3.05907618,12.5591749 Z M35.5370178,15.8181046 C35.401871,16.3947699 35.2559983,16.96812 35.092574,17.5336694 C34.9470913,18.0356432 34.7895175,18.5327417 34.6218029,19.0253547 L19.5992508,4.00299762 L4.57923395,19.0228195 C4.22469299,17.9831837 3.91715112,16.9094199 3.66128878,15.8182996 L16.6876465,2.79194185 L22.5108551,2.79194185 L35.5370178,15.8181046 Z M36.4378015,9.21814311 C36.4243453,9.59764626 36.4005532,10.0138126 36.3650601,10.487509 C36.3114304,11.1813796 36.2365439,11.8762253 36.1429357,12.5626852 L26.3721924,2.79194185 L30.3329883,2.79194185 L36.4477474,8.90670091 C36.4444321,9.01044997 36.4422869,9.11556415 36.4378015,9.21814311 Z M3.90034066e-05,7.78437789 C3.90034066e-05,8.94940964 0.0556188578,10.144474 0.165998498,11.3393434 C0.315381545,12.9166411 0.565588399,14.5017396 0.910378513,16.05193 C1.23722706,17.5163129 1.65163825,18.9584638 2.14113101,20.3358691 C2.66377665,21.8156584 3.28529594,23.2607346 3.98735726,24.6285841 C5.93752758,28.4487727 8.50551187,31.7238888 11.6177887,34.3614941 C12.8077826,35.3740226 14.0900196,36.2968432 15.4278365,37.1034336 C16.5950134,37.8088102 17.8177702,38.43618 19.0621739,38.9687715 L19.5988608,39.1985016 L20.1355476,38.9691616 C20.3354401,38.8835491 20.5353326,38.7961815 20.7209888,38.7099839 C20.9571544,38.6033096 21.1911748,38.4923449 21.42149,38.3804051 C22.8698815,37.6781488 24.2759543,36.844451 25.6016801,35.9025187 C26.0186265,35.6057028 26.437328,35.2907503 26.8462788,34.966242 C27.6128907,34.3579838 28.3570757,33.7035067 29.0560168,33.0228972 C30.1598132,31.9528388 31.2010091,30.7751309 32.1507421,29.5219515 C33.3604327,27.9241769 34.440632,26.1797495 35.3566271,24.3454193 C35.4205926,24.2194383 35.4826081,24.0956025 35.5376029,23.9795674 C36.4110841,22.1785851 37.1437631,20.265663 37.715163,18.2924807 C38.1442005,16.8087911 38.4845052,15.2816127 38.7269114,13.7542393 C38.8868254,12.7512667 39.007931,11.7231369 39.0874979,10.6944221 C39.1257212,10.1819173 39.1516585,9.73045286 39.1658948,9.32579252 C39.1875416,8.82908413 39.1984626,8.31053384 39.1984626,7.78437789 L39.1984626,0.0617033892 L3.90034066e-05,0.0617033892 L3.90034066e-05,7.78437789 Z" id="Fill-1" fill="#221B63" mask="url(#mask-2)"></path>
                </g>
            </g>
            <path d="M52.143057,24.4011162 C48.788764,24.4011162 47.0780746,22.9923132 46.9774458,20.3927361 L50.2478815,20.3927361 C50.3317388,21.2480808 50.7174825,21.9524823 52.143057,21.9524823 C53.1325734,21.9524823 53.6860318,21.4661099 53.6860318,20.7617083 C53.6860318,20.0237639 53.2332022,19.8225063 51.7908562,19.6044773 C48.4030203,19.2019621 47.2625607,18.1956742 47.2625607,15.7805833 C47.2625607,13.6170643 49.040336,12.0405466 51.9082565,12.0405466 C54.7929484,12.0405466 56.4197805,13.2480921 56.6378096,15.7805833 L53.4512313,15.7805833 C53.333831,14.9252386 52.8474585,14.4891805 51.9082565,14.4891805 C50.9858259,14.4891805 50.5162249,14.9084671 50.5162249,15.5122398 C50.5162249,16.1830984 50.8851971,16.4849848 52.3778575,16.6862424 C55.4134926,17.0216717 56.9732389,17.8099305 56.9732389,20.4095076 C56.9732389,22.6065695 55.2290065,24.4011162 52.143057,24.4011162 Z M57.9416934,24.1998586 L57.9416934,11.5709456 L60.9437857,11.5709456 L60.9437857,16.8371856 C61.4133867,15.9315265 62.3693602,15.193582 63.8284776,15.193582 C65.5223955,15.193582 66.6963981,16.2501843 66.6963981,18.4975606 L66.6963981,24.1998586 L63.6943059,24.1998586 L63.6943059,19.1013333 C63.6943059,18.1118169 63.3085622,17.6254444 62.436446,17.6254444 C61.5475584,17.6254444 60.9437857,18.1621313 60.9437857,19.2858194 L60.9437857,24.1998586 L57.9416934,24.1998586 Z M68.1009108,24.1998586 L68.1009108,15.4283825 L71.103003,15.4283825 L71.103003,24.1998586 L68.1009108,24.1998586 Z M69.5935711,14.5898093 C68.6543691,14.5898093 67.9499676,13.9357221 67.9499676,13.0468345 C67.9499676,12.1579469 68.6543691,11.4870883 69.5935711,11.4870883 C70.5327732,11.4870883 71.2539461,12.1579469 71.2539461,13.0468345 C71.2539461,13.9357221 70.5327732,14.5898093 69.5935711,14.5898093 Z M76.8680965,24.4011162 C74.1175763,24.4011162 72.1050005,22.7910556 72.1050005,19.9231351 L72.1050005,19.7889634 C72.1050005,16.9713573 74.2014336,15.193582 76.851325,15.193582 C79.2496445,15.193582 81.3125347,16.5688421 81.3125347,19.7218775 L81.3125347,20.5101364 L75.1406356,20.5101364 C75.2244929,21.6673674 75.8953515,22.338226 76.9687253,22.338226 C77.9582417,22.338226 78.3775283,21.8853965 78.4949286,21.2983952 L81.3125347,21.2983952 C81.0441912,23.2774281 79.5179879,24.4011162 76.8680965,24.4011162 Z M75.1741785,18.8162184 L78.3942998,18.8162184 C78.3439854,17.7596161 77.82407,17.1726149 76.851325,17.1726149 C75.9456659,17.1726149 75.3251217,17.7596161 75.1741785,18.8162184 Z M82.2977607,24.1998586 L82.2977607,11.5709456 L85.2830814,11.5709456 L85.2830814,24.1998586 L82.2977607,24.1998586 Z M90.0083442,24.4011162 C87.9789969,24.4011162 86.3186219,22.9419988 86.3186219,19.9063636 L86.3186219,19.7721919 C86.3186219,16.7868712 87.9622254,15.193582 90.0418871,15.193582 C91.4171472,15.193582 92.238949,15.7805833 92.7420929,16.6694709 L92.7420929,11.5709456 L95.7441851,11.5709456 L95.7441851,24.1998586 L92.7420929,24.1998586 L92.7420929,22.7742841 C92.3060348,23.6799432 91.3332899,24.4011162 90.0083442,24.4011162 Z M91.0649464,22.1034255 C92.1550917,22.1034255 92.8259502,21.3487096 92.8259502,19.8560492 L92.8259502,19.7218775 C92.8259502,18.2459886 92.205406,17.4577298 91.0984894,17.4577298 C89.9748012,17.4577298 89.3710285,18.2124457 89.3710285,19.738649 L89.3710285,19.8728207 C89.3710285,21.3487096 90.0251156,22.1034255 91.0649464,22.1034255 Z" id="Shield" fill="#221B63"></path>
            <path d="M100.493581,24.1998586 L100.493581,12.2082613 L101.952699,12.2082613 L101.952699,17.6422159 L108.258769,17.6422159 L108.258769,12.2082613 L109.717887,12.2082613 L109.717887,24.1998586 L108.258769,24.1998586 L108.258769,18.8665328 L101.952699,18.8665328 L101.952699,24.1998586 L100.493581,24.1998586 Z M115.512233,23.1935707 C117.273237,23.1935707 118.380153,21.868625 118.380153,19.8895922 L118.380153,19.7721919 C118.380153,17.7428447 117.256465,16.4346704 115.512233,16.4346704 C113.751229,16.4346704 112.644312,17.7428447 112.644312,19.7554204 L112.644312,19.8895922 C112.644312,21.8853965 113.734458,23.1935707 115.512233,23.1935707 Z M115.495461,24.3508018 C112.996513,24.3508018 111.201966,22.4556263 111.201966,19.8895922 L111.201966,19.7554204 C111.201966,17.1223005 113.030056,15.2774393 115.512233,15.2774393 C117.99441,15.2774393 119.822499,17.105529 119.822499,19.738649 L119.822499,19.8728207 C119.822499,22.5227121 117.99441,24.3508018 115.495461,24.3508018 Z M121.20595,24.1998586 L121.20595,15.4283825 L122.597982,15.4283825 L122.597982,16.7700997 C123.000497,15.9482979 123.95647,15.2774393 125.21433,15.2774393 C126.338018,15.2774393 127.327535,15.7470403 127.780364,16.9210429 C128.384137,15.7805833 129.692311,15.2774393 130.782457,15.2774393 C132.358974,15.2774393 133.734234,16.2166414 133.734234,18.765904 L133.734234,24.1998586 L132.342203,24.1998586 L132.342203,18.6652752 C132.342203,17.1223005 131.688116,16.4849848 130.48057,16.4849848 C129.340111,16.4849848 128.166108,17.2564722 128.166108,18.8329899 L128.166108,24.1998586 L126.774077,24.1998586 L126.774077,18.6652752 C126.774077,17.1223005 126.119989,16.4849848 124.912444,16.4849848 C123.771984,16.4849848 122.597982,17.2564722 122.597982,18.8329899 L122.597982,24.1998586 L121.20595,24.1998586 Z M139.277009,24.3508018 C136.794832,24.3508018 135.033828,22.6065695 135.033828,19.9063636 L135.033828,19.7721919 C135.033828,17.1223005 136.727746,15.2774393 139.142837,15.2774393 C141.172184,15.2774393 143.084131,16.5017563 143.084131,19.6380202 L143.084131,20.0908497 L136.476174,20.0908497 C136.54326,22.0866541 137.499233,23.1935707 139.29378,23.1935707 C140.652269,23.1935707 141.440527,22.6904268 141.625014,21.6673674 L143.017045,21.6673674 C142.715159,23.4283712 141.256041,24.3508018 139.277009,24.3508018 Z M136.526488,18.9671616 L141.658557,18.9671616 C141.524385,17.1558434 140.585183,16.4346704 139.142837,16.4346704 C137.717262,16.4346704 136.761289,17.4074154 136.526488,18.9671616 Z M148.073447,24.3508018 C145.624813,24.3508018 143.779952,22.6233409 143.779952,19.9063636 L143.779952,19.7721919 C143.779952,17.0887575 145.691899,15.2774393 148.039904,15.2774393 C149.867994,15.2774393 151.578683,16.1160126 151.847026,18.3466174 L150.471766,18.3466174 C150.253737,16.9545858 149.247449,16.4346704 148.039904,16.4346704 C146.446615,16.4346704 145.222298,17.7093017 145.222298,19.7721919 L145.222298,19.9063636 C145.222298,22.0531111 146.3963,23.1935707 148.090218,23.1935707 C149.331307,23.1935707 150.454995,22.4723977 150.605938,21.0468232 L151.897341,21.0468232 C151.712855,22.9419988 150.186651,24.3508018 148.073447,24.3508018 Z M155.410768,24.3508018 C153.783936,24.3508018 152.492533,23.562543 152.492533,21.7679962 C152.492533,19.738649 154.63928,19.0510189 156.886657,19.0510189 L158.144516,19.0510189 L158.144516,18.4137033 C158.144516,17.0216717 157.60783,16.4346704 156.266112,16.4346704 C155.058567,16.4346704 154.387708,16.9378144 154.253537,18.0111881 L152.861505,18.0111881 C153.045991,16.0153838 154.63928,15.2774393 156.333198,15.2774393 C158.010345,15.2774393 159.536548,15.9650694 159.536548,18.4137033 L159.536548,24.1998586 L158.144516,24.1998586 L158.144516,23.0929419 C157.490429,23.9147437 156.70217,24.3508018 155.410768,24.3508018 Z M155.544939,23.2438851 C157.020828,23.2438851 158.144516,22.4891692 158.144516,21.1306806 L158.144516,20.0405353 L156.936971,20.0405353 C155.175967,20.0405353 153.884564,20.4765934 153.884564,21.7679962 C153.884564,22.6736553 154.320622,23.2438851 155.544939,23.2438851 Z M161.490229,24.1998586 L161.490229,15.4283825 L162.88226,15.4283825 L162.88226,17.0049002 C163.435719,16.0153838 164.190434,15.3277537 165.766952,15.2774393 L165.766952,16.5856136 C164.005948,16.6694709 162.88226,17.2229293 162.88226,19.3864482 L162.88226,24.1998586 L161.490229,24.1998586 Z M170.605325,24.3508018 C168.123148,24.3508018 166.362144,22.6065695 166.362144,19.9063636 L166.362144,19.7721919 C166.362144,17.1223005 168.056062,15.2774393 170.471153,15.2774393 C172.5005,15.2774393 174.412447,16.5017563 174.412447,19.6380202 L174.412447,20.0908497 L167.80449,20.0908497 C167.871576,22.0866541 168.827549,23.1935707 170.622096,23.1935707 C171.980585,23.1935707 172.768844,22.6904268 172.95333,21.6673674 L174.345361,21.6673674 C174.043475,23.4283712 172.584358,24.3508018 170.605325,24.3508018 Z M167.854805,18.9671616 L172.986873,18.9671616 C172.852701,17.1558434 171.913499,16.4346704 170.471153,16.4346704 C169.045579,16.4346704 168.089605,17.4074154 167.854805,18.9671616 Z" id="Homecare" fill="#221B63"></path>
        </g>
    </g>
</svg>