<?xml version="1.0" encoding="UTF-8"?>
<svg width="55px" height="55px" viewBox="0 0 55 55" version="1.1" xmlns="http://www.w3.org/2000/svg" xmlns:xlink="http://www.w3.org/1999/xlink">
    <!-- Generator: Sketch 48.2 (47327) - http://www.bohemiancoding.com/sketch -->
    <title>plant</title>
    <desc>Created with Sketch.</desc>
    <defs></defs>
    <g id="Home" stroke="none" stroke-width="1" fill="none" fill-rule="evenodd" transform="translate(-297.000000, -1796.000000)">
        <g id="plant" transform="translate(297.355469, 1796.635742)" fill-rule="nonzero">
            <path d="M38.72652,19.9500255 C34.071651,19.9500255 30.061778,22.6671837 28.1647418,26.5957545 L28.1647418,1.17353091 C28.1647418,0.525448465 27.6398567,0 26.9912109,0 C26.3425652,0 25.81768,0.525448465 25.81768,1.17353091 L25.81768,14.8604454 C23.9206438,10.9318746 19.9107709,8.21471637 15.2559018,8.21471637 L12.90884,8.21471637 L12.90884,12.90884 C12.90884,19.3900517 18.1629374,24.6441491 24.6441491,24.6441491 L25.81768,24.6441491 L25.81768,43.7174649 C25.81768,44.3655473 26.3425652,44.8909958 26.9912109,44.8909958 C27.6398567,44.8909958 28.1647418,44.3655473 28.1647418,43.7174649 L28.1647418,36.3794582 L29.3382728,36.3794582 C35.8194845,36.3794582 41.0735819,31.1253608 41.0735819,24.6441491 L41.0735819,19.9500255 L38.72652,19.9500255 Z" id="Shape" fill="#72C472"></path>
            <path d="M52.808891,53.9824219 L1.17353091,53.9824219 C0.52488517,53.9824219 0,53.4569734 0,52.808891 C0,52.1608085 0.52488517,51.6353601 1.17353091,51.6353601 L11.8533546,51.6353601 C12.3988587,48.9605311 14.7688513,46.9412364 17.6029637,46.9412364 C18.499154,46.9412364 19.3815906,47.1543966 20.1838163,47.5549344 C22.0484044,44.2904765 25.5082551,42.2471128 29.3382728,42.2471128 C34.7658532,42.2471128 39.2491051,46.3619229 39.8347322,51.6353601 L52.808891,51.6353601 C53.4575367,51.6353601 53.9824219,52.1608085 53.9824219,52.808891 C53.9824219,53.4569734 53.4575367,53.9824219 52.808891,53.9824219 Z" id="Shape" fill="#A67C52"></path>
        </g>
    </g>
</svg>