<?xml version="1.0" encoding="UTF-8"?>
<svg width="49px" height="34px" viewBox="0 0 49 34" version="1.1" xmlns="http://www.w3.org/2000/svg" xmlns:xlink="http://www.w3.org/1999/xlink">
    <!-- Generator: Sketch 48.2 (47327) - http://www.bohemiancoding.com/sketch -->
    <title>science</title>
    <desc>Created with Sketch.</desc>
    <defs></defs>
    <g id="Home" stroke="none" stroke-width="1" fill="none" fill-rule="evenodd" transform="translate(-744.000000, -888.000000)" stroke-linecap="square">
        <g id="science" transform="translate(745.000000, 889.000000)" stroke="#3EB66A" stroke-width="2">
            <g id="flask" transform="translate(0.000000, 0.500000)">
                <path d="M3,12 L7,12" id="Shape"></path>
                <path d="M3,17 L7,17" id="Shape"></path>
                <path d="M3,22 L7,22" id="Shape"></path>
                <path d="M0,0 L0,4 L3,4 L3,25 C3,27.761 5.239,30 8,30 C10.761,30 13,27.761 13,25 L13,4 L16,4 L16,0 L0,0 Z" id="Shape"></path>
            </g>
            <g id="flask-2" transform="translate(25.000000, 1.500000)">
                <path d="M11,26 C14.9,26 18,22.9 18,19 L4,19 C4,22.9 7.1,26 11,26 Z" id="Shape"></path>
                <path d="M15,8.8 L15,0 L7,0 L7,8.8 C2.9,10.4 0,14.3 0,19 C0,25.1 4.9,30 11,30 C17.1,30 22,25.1 22,19 C22,14.3 19.1,10.4 15,8.8 Z" id="Shape"></path>
            </g>
        </g>
    </g>
</svg>