<?xml version="1.0" encoding="UTF-8"?>
<svg width="16px" height="16px" viewBox="0 0 16 16" version="1.1" xmlns="http://www.w3.org/2000/svg" xmlns:xlink="http://www.w3.org/1999/xlink">
    <!-- Generator: Sketch 48.2 (47327) - http://www.bohemiancoding.com/sketch -->
    <title>searchfield</title>
    <desc>Created with Sketch.</desc>
    <defs></defs>
    <g id="Events-Calendar" stroke="none" stroke-width="1" fill="none" fill-rule="evenodd" transform="translate(-163.000000, -433.000000)">
        <g id="Group-14" transform="translate(135.000000, 199.000000)" fill="#322B5E" fill-rule="nonzero">
            <g id="Group-11" transform="translate(0.000000, 204.000000)">
                <g id="Group-2">
                    <g id="Group-6" transform="translate(0.000000, 0.513672)">
                        <g id="zoom-bold" transform="translate(28.000000, 29.486328)">
                            <path d="M15.707,13.293 L13,10.586 C13.63,9.536 14,8.311 14,7 C14,3.14 10.859,0 7,0 C3.141,0 0,3.14 0,7 C0,10.86 3.141,14 7,14 C8.312,14 9.536,13.631 10.586,13 L13.293,15.707 C13.488,15.902 13.744,16 14,16 C14.256,16 14.512,15.902 14.707,15.707 L15.707,14.707 C16.098,14.316 16.098,13.684 15.707,13.293 Z M7,12 C4.239,12 2,9.761 2,7 C2,4.239 4.239,2 7,2 C9.761,2 12,4.239 12,7 C12,9.761 9.761,12 7,12 Z" id="searchfield"></path>
                        </g>
                    </g>
                </g>
            </g>
        </g>
    </g>
</svg>