<?xml version="1.0" encoding="UTF-8"?>
<svg width="56px" height="55px" viewBox="0 0 56 55" version="1.1" xmlns="http://www.w3.org/2000/svg" xmlns:xlink="http://www.w3.org/1999/xlink">
    <!-- Generator: Sketch 48.2 (47327) - http://www.bohemiancoding.com/sketch -->
    <title>search</title>
    <desc>Created with Sketch.</desc>
    <defs></defs>
    <g id="Home" stroke="none" stroke-width="1" fill="none" fill-rule="evenodd" transform="translate(-256.000000, -2127.000000)">
        <g id="search" transform="translate(256.949219, 2127.884766)" fill-rule="nonzero">
            <path d="M51.6424006,54.1015625 C51.0131994,54.1015625 50.3833957,53.861413 49.9036993,53.3811018 L36.3783087,39.8557112 C35.4176986,38.8957036 35.4176986,37.3383163 36.3783087,36.3783087 C37.3377138,35.4176986 38.8963061,35.4176986 39.8557112,36.3783087 L53.3811018,49.9036993 C54.341712,50.8637069 54.341712,52.4210942 53.3811018,53.3811018 C52.9014054,53.861413 52.2716017,54.1015625 51.6424006,54.1015625 Z" id="Shape" fill="#B3B3B3"></path>
            <circle id="Oval" fill="#43A6DD" cx="23.3620384" cy="23.3620384" r="22.1324574"></circle>
            <path d="M23.3620384,46.7240767 C10.4802596,46.7240767 0,36.2438171 0,23.3620384 C0,10.4802596 10.4802596,0 23.3620384,0 C36.2438171,0 46.7240767,10.4802596 46.7240767,23.3620384 C46.7240767,36.2438171 36.2438171,46.7240767 23.3620384,46.7240767 Z M23.3620384,2.45916193 C11.8359218,2.45916193 2.45916193,11.8359218 2.45916193,23.3620384 C2.45916193,34.8881549 11.8359218,44.2649148 23.3620384,44.2649148 C34.8881549,44.2649148 44.2649148,34.8881549 44.2649148,23.3620384 C44.2649148,11.8359218 34.8881549,2.45916193 23.3620384,2.45916193 Z" id="Shape" fill="#221B63"></path>
            <path d="M11.3135835,22.1318549 C11.2325295,22.1318549 11.1502828,22.1240471 11.0680239,22.1072387 C10.4022058,21.9721569 9.97233199,21.3231349 10.1074138,20.6579193 C11.188695,15.3301327 15.3301327,11.1893097 20.6585095,10.1074138 C21.3225324,9.9705245 21.9727471,10.4022058 22.1078289,11.0680239 C22.2429106,11.7332518 21.8130368,12.3822615 21.1472187,12.5173433 C16.7896453,13.4023096 13.4022973,16.7896576 12.5173433,21.1466286 C12.3990699,21.7295975 11.8863469,22.1318549 11.3135835,22.1318549 Z" id="Shape" fill="#BADEFC"></path>
        </g>
    </g>
</svg>