<?xml version="1.0" encoding="UTF-8"?>
<svg width="86px" height="101px" viewBox="0 0 86 101" version="1.1" xmlns="http://www.w3.org/2000/svg" xmlns:xlink="http://www.w3.org/1999/xlink">
    <!-- Generator: Sketch 48.2 (47327) - http://www.bohemiancoding.com/sketch -->
    <title>smart</title>
    <desc>Created with Sketch.</desc>
    <defs></defs>
    <g id="Home" stroke="none" stroke-width="1" fill="none" fill-rule="evenodd" transform="translate(-677.000000, -3820.000000)">
        <g id="smart" transform="translate(677.000000, 3820.550781)" fill="#FFFFFF" fill-rule="nonzero">
            <g id="Group">
                <g id="Shape">
                    <path d="M56.5696338,59.4644814 C54.4370293,59.4644814 52.4142702,58.9865949 50.5990838,58.1364971 C53.9024611,54.8591977 55.951802,50.3169276 55.951802,45.3040117 C55.951802,45.2061644 55.9494566,45.1089041 55.9478929,45.0114481 C60.2277611,42.6396282 63.4492429,38.5789628 64.7079702,33.7335616 C68.3363884,36.2995108 70.7125293,40.5276908 70.7125293,45.3040117 C70.7125293,53.1120352 64.3680748,59.4644814 56.5696338,59.4644814 M37.8996202,59.4644814 C30.1011793,59.4644814 23.7565293,53.1120352 23.7565293,45.3040117 C23.7565293,40.5278865 26.1326702,36.2997065 29.7612838,33.7335616 C31.0198157,38.5789628 34.2414929,42.6396282 38.5211657,45.0114481 C38.519602,45.1089041 38.517452,45.2061644 38.517452,45.3040117 C38.517452,50.3169276 40.5667929,54.8591977 43.8701702,58.1364971 C42.0549838,58.9865949 40.0326157,59.4644814 37.8996202,59.4644814 M47.2345293,15.0261252 C54.5875293,15.0261252 60.6456429,20.6740705 61.313902,27.86409 C59.8014748,27.4511742 58.2108657,27.2294521 56.5696338,27.2294521 C53.1556293,27.2294521 49.9603384,28.1834638 47.2345293,29.8388454 C44.5091111,28.1834638 41.3136248,27.2294521 37.8996202,27.2294521 C36.2581929,27.2294521 34.6677793,27.4511742 33.1551566,27.86409 C33.8236111,20.6740705 39.8815293,15.0261252 47.2345293,15.0261252 M50.5990838,32.4713307 C52.4142702,31.6214286 54.4370293,31.1433464 56.5696338,31.1433464 C58.1594611,31.1433464 59.6871338,31.4112524 61.1147338,31.8979452 C60.4058202,35.5421722 58.2968657,38.6891389 55.3730611,40.7568493 C54.5451157,37.5697652 52.8679202,34.7222114 50.5990838,32.4713307 M39.0961929,40.7568493 C36.1723884,38.6891389 34.0634338,35.5421722 33.3545202,31.8979452 C34.7819248,31.4112524 36.3097929,31.1433464 37.8996202,31.1433464 C40.0326157,31.1433464 42.0549838,31.6212329 43.8701702,32.471135 C41.6013338,34.7222114 39.9241384,37.5697652 39.0961929,40.7568493 M47.2345293,43.3470646 C45.6445066,43.3470646 44.1170293,43.0791585 42.6894293,42.5924658 C43.2976838,39.4668297 44.9357884,36.7067515 47.2345293,34.6793542 C49.5336611,36.7067515 51.1715702,39.4668297 51.7796293,42.5924658 C50.3520293,43.0791585 48.824552,43.3470646 47.2345293,43.3470646 M47.2345293,55.9284736 C44.6003884,53.6055773 42.8336748,50.3204501 42.4902611,46.6261252 C44.0026884,47.0392368 45.593102,47.2609589 47.2345293,47.2609589 C48.876152,47.2609589 50.4663702,47.0392368 51.9789929,46.6261252 C51.6355793,50.3204501 49.8688657,53.6055773 47.2345293,55.9284736 M65.2831929,29.4791585 C65.2847566,29.3817025 65.2869066,29.2842466 65.2869066,29.1863992 C65.2869066,19.2202544 57.1886384,11.1122309 47.2345293,11.1122309 C37.2806157,11.1122309 29.1823475,19.2202544 29.1823475,29.1863992 C29.1823475,29.2842466 29.1844975,29.3817025 29.1858657,29.4791585 C23.6230338,32.5621331 19.8474384,38.4995108 19.8474384,45.3040117 C19.8474384,55.2699609 27.9457066,63.3783757 37.8996202,63.3783757 C41.3136248,63.3783757 44.5091111,62.424364 47.2345293,60.7689824 C49.9603384,62.424364 53.1556293,63.3783757 56.5696338,63.3783757 C66.5235475,63.3783757 74.6216202,55.2699609 74.6216202,45.3040117 C74.6216202,38.4995108 70.8462202,32.5621331 65.2831929,29.4791585 M67.5017388,74.0561644 C67.2077752,74.4082192 67.0467207,74.8524462 67.0467207,75.311546 L67.0467207,95.890411 L32.4049434,95.890411 L32.4049434,78.9528376 C32.4049434,78.3849315 32.1582798,77.8446184 31.7290616,77.4729941 C31.2998434,77.1013699 30.7312661,76.9340509 30.1687479,77.0166341 L19.3100752,78.5986301 C18.0912207,78.7181996 16.9220116,78.3303327 16.0133434,77.5050881 C15.0962707,76.67182 14.5966888,75.530137 14.606657,74.290411 C14.6074388,74.1892368 14.6004025,74.0880626 14.5855479,73.9878669 L12.5733434,60.3906067 C12.4312479,59.4313112 11.6087752,58.7207436 10.639907,58.7207436 L6.8199434,58.7207436 C5.7756298,58.7207436 4.8384252,58.1810176 4.3132388,57.2774951 C3.7876616,56.3739726 3.7819934,55.2913894 4.2977979,54.3823875 L12.2045207,40.4434442 C12.4791343,40.0874755 12.6270934,39.6420744 12.611457,39.1798434 C12.5960161,38.7246575 12.5887843,38.3489237 12.5887843,37.9976517 C12.5887843,19.2039139 27.8600388,3.91389432 46.6307116,3.91389432 C65.8034343,3.91389432 82.0009479,19.5225049 82.0009479,37.9976517 C82.0009479,49.0062622 76.038607,63.8340509 67.5017388,74.0561644 M74.0953979,11.095499 C66.6937298,4.04422701 56.6833298,0 46.6307116,0 C25.7043707,0 8.6796934,17.0457926 8.6796934,37.9976517 C8.6796934,38.2266145 8.6822343,38.462818 8.6879025,38.7178082 L0.89864794,52.4495108 C-0.31219297,54.583953 -0.29870661,57.1248532 0.93480703,59.2465753 C2.16812521,61.3679061 4.3681616,62.634638 6.8199434,62.634638 L8.9535252,62.634638 L10.697957,74.4215264 C10.7249298,76.6982387 11.6990752,78.8706458 13.3866298,80.4035225 C15.1142525,81.9727984 17.4362525,82.7317025 19.7549298,82.4874755 C19.7805343,82.4847358 19.8061388,82.4816047 19.8313525,82.4776908 L28.4958525,81.2152642 L28.4958525,97.8473581 C28.4958525,98.9283757 29.3709025,99.8043053 30.4503979,99.8043053 L69.0012661,99.8043053 C70.0805661,99.8043053 70.9558116,98.9283757 70.9558116,97.8473581 L70.9558116,76.0148728 C79.7850798,65.1710372 85.9100388,49.6438356 85.9100388,37.9976517 C85.9100388,27.9076321 81.7142161,18.3534247 74.0953979,11.095499"></path>
                </g>
            </g>
        </g>
    </g>
</svg>