<?xml version="1.0" encoding="UTF-8"?>
<svg width="50px" height="54px" viewBox="0 0 50 54" version="1.1" xmlns="http://www.w3.org/2000/svg" xmlns:xlink="http://www.w3.org/1999/xlink">
    <!-- Generator: Sketch 48.2 (47327) - http://www.bohemiancoding.com/sketch -->
    <title>tap</title>
    <desc>Created with Sketch.</desc>
    <defs></defs>
    <g id="Home" stroke="none" stroke-width="1" fill="none" fill-rule="evenodd" transform="translate(-222.000000, -1796.000000)">
        <g id="tap" transform="translate(222.193359, 1796.126953)" fill-rule="nonzero">
            <g id="water-sink" transform="translate(0.000000, 0.053455)">
                <path d="M40.2295032,0 L21.2979723,0 C20.6445386,0 20.1147516,0.52978706 20.1147516,1.18322068 C20.1147516,1.8366543 20.6445386,2.36644136 21.2979723,2.36644136 L29.580517,2.36644136 L29.580517,9.46576545 C29.580517,10.1191991 30.1103041,10.6489861 30.7637377,10.6489861 C31.4171713,10.6489861 31.9469584,10.1191991 31.9469584,9.46576545 L31.9469584,2.36644136 L40.2295032,2.36644136 C40.8829368,2.36644136 41.4127238,1.8366543 41.4127238,1.18322068 C41.4127238,0.52978706 40.8829368,0 40.2295032,0 Z" id="Shape" fill="#B3B3B3"></path>
                <path d="M1.18322068,48.2754038 C1.18322068,45.19903 5.91610341,40.2295032 5.91610341,40.2295032 C5.91610341,40.2295032 10.6489861,45.19903 10.6489861,48.2754038 C10.6489861,51.4700996 8.28254477,53.2449307 5.91610341,53.2449307 C3.54966204,53.2449307 1.18322068,51.4700996 1.18322068,48.2754038 Z" id="Shape" fill="#43A6DD"></path>
                <path d="M48.5120479,11.8322068 L38.1411778,11.8322068 C36.404766,9.67130271 33.7450397,8.28254477 30.7637377,8.28254477 C27.7824357,8.28254477 25.1227094,9.67130271 23.3862976,11.8322068 L17.7483102,11.8322068 C7.96189196,11.8322068 0,19.7940988 0,29.580517 L0,31.9469584 C0,32.600392 0.52978706,33.1301791 1.18322068,33.1301791 L10.6489861,33.1301791 C11.3024198,33.1301791 11.8322068,32.600392 11.8322068,31.9469584 L11.8322068,29.580517 C11.8322068,26.3185669 14.4863601,23.6644136 17.7483102,23.6644136 L23.3862976,23.6644136 C25.1227094,25.8253177 27.7824239,27.2140757 30.7637377,27.2140757 C33.7450515,27.2140757 36.404766,25.8253177 38.1411778,23.6644136 L48.5120479,23.6644136 C49.1654815,23.6644136 49.6952686,23.1346266 49.6952686,22.4811929 L49.6952686,13.0154275 C49.6952686,12.3619939 49.1654815,11.8322068 48.5120479,11.8322068 Z" id="Shape" fill="#43A6DD"></path>
            </g>
        </g>
    </g>
</svg>