<?xml version="1.0" encoding="UTF-8"?>
<svg width="78px" height="60px" viewBox="0 0 78 60" version="1.1" xmlns="http://www.w3.org/2000/svg" xmlns:xlink="http://www.w3.org/1999/xlink">
    <!-- Generator: Sketch 48.2 (47327) - http://www.bohemiancoding.com/sketch -->
    <title>truck</title>
    <desc>Created with Sketch.</desc>
    <defs></defs>
    <g id="Home" stroke="none" stroke-width="1" fill="none" fill-rule="evenodd" transform="translate(-1147.000000, -2125.000000)">
        <g id="truck" transform="translate(1147.000000, 2125.884766)">
            <path d="M76.4046596,30.4377927 L70.3708989,27.4217529 L67.1968281,14.7221072 C67.0102169,13.9739814 66.3377443,13.4494527 65.5660819,13.4494527 L48.7542661,13.4494527 C47.8262538,13.4494527 47.0730845,14.2026221 47.0730845,15.1306343 L47.0730845,42.0295397 L0,42.0295397 L0,43.7107213 C0,45.568427 1.50465752,47.0730845 3.36236318,47.0730845 L75.6531715,47.0730845 C76.5811837,47.0730845 77.3343531,46.3199151 77.3343531,45.3919029 L77.3343531,31.9424502 C77.3343531,31.3052824 76.9745802,30.7235935 76.4046596,30.4377927 Z" id="Shape" fill="#221B63" fill-rule="nonzero"></path>
            <polygon id="Shape" fill="#E6E6E6" fill-rule="nonzero" points="67.1951469 28.580087 64.2530791 16.8118159 53.7978108 16.8118159 53.7978108 28.580087"></polygon>
            <path d="M0,3.36236318 L0,42.0295397 L50.4354477,42.0295397 L50.4354477,3.36236318 C50.4354477,1.50465752 48.9307901,0 47.0730845,0 L3.36236318,0 C1.50465752,0 0,1.50465752 0,3.36236318 Z" id="Shape" fill="#72C472" fill-rule="nonzero"></path>
            <path d="M16.6025902,12.7567763 L15.2603607,14.0990058 L15.2603607,12.7567763 L16.6025902,12.7567763 Z M35.175087,14.0990058 L33.8328575,12.7567763 L35.175087,12.7567763 L35.175087,14.0990058 Z M33.0797815,24.7541902 C32.8720007,25.1700972 32.6485644,25.5758741 32.4123504,25.9710606 L32.4123504,22.9454035 L33.444693,23.9777461 C33.356861,24.1756271 33.2668418,24.3721268 33.1729088,24.5658637 C33.1437849,24.6272194 33.1135099,24.6877694 33.0797815,24.7541902 Z M29.6768958,29.4454321 C29.5183838,29.5998 29.355037,29.7507145 29.1891577,29.8988662 L29.1891577,19.7222108 L30.800754,21.3338072 L30.800754,28.2347779 C30.4432099,28.6594335 30.0685137,29.0659011 29.6768958,29.4454321 Z M25.965965,32.1242505 L25.965965,16.4990181 L27.5775613,18.1106145 L27.5775613,31.1610915 C27.0590878,31.5146067 26.5193181,31.8368108 25.965965,32.1242505 Z M22.7427723,31.0784396 L22.7427723,18.2257285 L24.3543686,16.6141322 L24.3543686,32.0640459 C24.0951319,31.9264847 23.8392334,31.7820166 23.5882848,31.6304114 C23.3006149,31.4569345 23.0195064,31.2709103 22.7427723,31.0784396 Z M19.5195796,28.1021665 L19.5195796,21.4489212 L21.1311759,19.8373249 L21.1311759,29.7941125 C20.5568721,29.2719552 20.0185989,28.7078965 19.5195796,28.1021665 Z M16.9922512,23.9762496 L17.9079832,23.0605176 L17.9079832,25.7753667 C17.7446364,25.4934525 17.5870453,25.2061279 17.4369366,24.9121267 C17.2803816,24.6070745 17.1332658,24.2937341 16.9922512,23.9762496 Z M15.4544429,18.5221471 C15.4147286,18.2320598 15.3786979,17.9418573 15.3513007,17.6522304 C15.3117015,17.2221644 15.2861462,16.7920984 15.2724476,16.3661765 L18.8818479,12.7567763 L21.2198137,12.7567763 L15.4544429,18.5221471 Z M34.6254175,20.4458176 C34.5456435,20.7862098 34.4595382,21.124645 34.3630727,21.4584757 C34.2771976,21.7547792 34.1841855,22.0482048 34.0851874,22.3389829 L25.2177238,13.4716344 L16.3517567,22.3374864 C16.1424794,21.7238135 15.9609446,21.0899957 15.809915,20.4459327 L23.4990714,12.7567763 L26.9363762,12.7567763 L34.6254175,20.4458176 Z M35.1571292,16.5500136 C35.1491863,16.7740255 35.1351424,17.0196789 35.1141917,17.2992908 C35.0825353,17.7088665 35.0383315,18.1190178 34.9830768,18.5242192 L29.2156339,12.7567763 L31.5535998,12.7567763 L35.163,16.3661765 C35.1610431,16.4274172 35.1597768,16.4894637 35.1571292,16.5500136 Z M13.6487643,15.7036953 C13.6487643,16.3913865 13.6815718,17.0968053 13.7467263,17.8021089 C13.8349037,18.7331511 13.982595,19.6687979 14.1861166,20.5838393 C14.3790477,21.4482305 14.623665,22.2994987 14.9126012,23.1125491 C15.2211068,23.9860343 15.5879752,24.8390292 16.0023857,25.646439 C17.1535259,27.9014077 18.6693474,29.8346326 20.5064521,31.3915498 C21.2088779,31.9892218 21.9657526,32.5339414 22.7554348,33.010053 C23.4443923,33.4264204 24.1661572,33.7967422 24.9006998,34.1111186 L25.2174936,34.2467229 L25.5342874,34.1113488 C25.6522793,34.0608138 25.7702711,34.0092427 25.8798597,33.9583623 C26.0192628,33.8953949 26.1573996,33.8298951 26.2933493,33.7638196 C27.1483011,33.349294 27.9782733,32.8571815 28.7608184,32.3011808 C29.0069322,32.1259773 29.254082,31.9400681 29.4954761,31.7485184 C29.9479893,31.3894777 30.3872645,31.0031551 30.7998331,30.6014071 C31.4513785,29.9697765 32.0659723,29.2746029 32.6265776,28.5348801 C33.3406299,27.5917509 33.9782465,26.562056 34.518937,25.4792935 C34.5566944,25.4049298 34.5933007,25.3318324 34.6257629,25.2633395 C35.1413586,24.2002615 35.573842,23.0711081 35.9111261,21.9063843 C36.1643769,21.0305968 36.3652509,20.1291389 36.5083376,19.2275659 C36.6027311,18.6355344 36.6742169,18.0286533 36.7211835,17.4214268 C36.7437458,17.1189072 36.759056,16.8524182 36.7674593,16.6135566 C36.780237,16.3203612 36.7866833,16.014273 36.7866833,15.7036953 L36.7866833,11.1451799 L13.6487643,11.1451799 L13.6487643,15.7036953 Z" id="Fill-1" fill="#221B63"></path>
            <path d="M60.5225372,58.8413556 C54.9595073,58.8413556 50.4354477,54.3172959 50.4354477,48.7542661 C50.4354477,43.1912362 54.9595073,38.6671765 60.5225372,38.6671765 C66.0855671,38.6671765 70.6096267,43.1912362 70.6096267,48.7542661 C70.6096267,54.3172959 66.0855671,58.8413556 60.5225372,58.8413556 Z" id="Shape" fill="#444444" fill-rule="nonzero"></path>
            <path d="M60.5225372,53.7978108 C57.7418628,53.7978108 55.4789924,51.5349404 55.4789924,48.7542661 C55.4789924,45.9735917 57.7418628,43.7107213 60.5225372,43.7107213 C63.3032115,43.7107213 65.5660819,45.9735917 65.5660819,48.7542661 C65.5660819,51.5349404 63.3032115,53.7978108 60.5225372,53.7978108 Z" id="Shape" fill="#E6E6E6" fill-rule="nonzero"></path>
            <path d="M15.1306343,58.8413556 C9.56760442,58.8413556 5.04354477,54.3172959 5.04354477,48.7542661 C5.04354477,43.1912362 9.56760442,38.6671765 15.1306343,38.6671765 C20.6936642,38.6671765 25.2177238,43.1912362 25.2177238,48.7542661 C25.2177238,54.3172959 20.6936642,58.8413556 15.1306343,58.8413556 Z" id="Shape" fill="#444444" fill-rule="nonzero"></path>
            <path d="M15.1306343,53.7978108 C12.3499599,53.7978108 10.0870895,51.5349404 10.0870895,48.7542661 C10.0870895,45.9735917 12.3499599,43.7107213 15.1306343,43.7107213 C17.9113086,43.7107213 20.1741791,45.9735917 20.1741791,48.7542661 C20.1741791,51.5349404 17.9113086,53.7978108 15.1306343,53.7978108 Z" id="Shape" fill="#E6E6E6" fill-rule="nonzero"></path>
            <path d="M77.3343531,43.7107213 L75.6531715,43.7107213 C74.7251592,43.7107213 73.9719899,42.9575519 73.9719899,42.0295397 L73.9719899,38.6671765 C73.9719899,37.7391643 74.7251592,36.9859949 75.6531715,36.9859949 L77.3343531,36.9859949 L77.3343531,43.7107213 Z" id="Shape" fill="#EFD358" fill-rule="nonzero"></path>
        </g>
    </g>
</svg>